<?xml version="1.0" encoding="UTF-8"?>
<svg id="Camada_1" xmlns="http://www.w3.org/2000/svg" version="1.1" viewBox="0 0 100 125">
  <!-- Generator: Adobe Illustrator 30.0.0, SVG Export Plug-In . SVG Version: 2.1.1 Build 123)  -->
  <path d="M50,14.34C23.77,14.34,2.5,30.34,2.5,50c.08,6.7,2.46,13.18,6.75,18.33l-6.75,17.33,18-7.72c8.97,5.16,19.15,7.83,29.5,7.72,26.23,0,47.5-16,47.5-35.66S76.23,14.34,50,14.34ZM50,82.66c-9.81.1-19.48-2.42-28-7.29l-1.31-.78-1.41.6-11.39,4.89,4.11-10.66.63-1.61-1.08-1.35c-3.84-4.63-5.98-10.44-6.05-16.46,0-18,20-32.66,44.5-32.66s44.5,14.66,44.5,32.66-19.96,32.66-44.5,32.66Z"/>
  <path d="M34.48,45.22c-2.62-.02-4.76,2.08-4.78,4.7,0,.01,0,.02,0,.03,0,2.64,2.14,4.78,4.78,4.78,2.64,0,4.78-2.14,4.78-4.78h0c0-2.62-2.13-4.74-4.75-4.73-.01,0-.02,0-.03,0Z"/>
  <path d="M50,45.22c-2.62-.02-4.76,2.08-4.78,4.7,0,.01,0,.02,0,.03,0,2.64,2.14,4.78,4.78,4.78s4.78-2.14,4.78-4.78c0-2.62-2.13-4.74-4.75-4.73-.01,0-.02,0-.03,0Z"/>
  <path d="M65.52,45.22c-2.62-.02-4.76,2.08-4.78,4.7,0,.01,0,.02,0,.03,0,2.64,2.14,4.78,4.78,4.78,2.64,0,4.78-2.14,4.78-4.78h0c0-2.63-2.13-4.74-4.75-4.74-.01,0-.02,0-.03,0Z"/>
</svg>