<?xml version="1.0" encoding="UTF-8"?>
<svg id="Camada_1" xmlns="http://www.w3.org/2000/svg" version="1.1" viewBox="0 0 110 135">
  <!-- Generator: Adobe Illustrator 30.0.0, SVG Export Plug-In . SVG Version: 2.1.1 Build 123)  -->
  <path d="M91.41,35.75C67.75.25,11.25,16.59,11.25,60c0,24.28,19.72,43.75,43.75,43.75s43.75-19.5,43.75-43.75c0-8.34-2.44-16.88-7.34-24.25h0ZM85.44,81.81l-12.16-1.94-7.12-9.78,3.78-11.66,11.5-3.75,11,5.59c-.06,7.84-2.5,15.22-7.03,21.53h.03ZM74.13,86.34l6.47,1.03c-2.25,2.12-4.78,3.97-7.47,5.44l1.03-6.47h-.03ZM35.88,86.34l1.03,6.47c-2.69-1.5-5.22-3.31-7.47-5.44l6.47-1.03h-.03ZM36.69,79.87l-12.16,1.94c-4.53-6.28-6.97-13.69-7.03-21.53l11-5.59,11.5,3.75,3.78,11.66-7.12,9.78h.03ZM21.06,44.09l3,5.84-5.84,2.97c.59-3.03,1.53-6,2.84-8.84v.03ZM49.56,67.5l-3.38-10.38,8.81-6.41,8.81,6.41-3.38,10.38h-10.91.03ZM85.97,49.94l3-5.84c1.31,2.81,2.28,5.78,2.84,8.84l-5.84-2.97v-.03ZM85.16,37.75l-5.59,10.97-11.5,3.75-9.94-7.19v-12.12l8.69-8.69c7.34,2.41,13.72,7.06,18.34,13.28h0ZM59.66,22.81l-4.66,4.66-4.66-4.66c3.22-.41,6.09-.41,9.31,0h0ZM43.19,24.47l8.69,8.69v12.12l-9.94,7.19-11.5-3.75-5.59-10.97c4.59-6.22,11-10.88,18.34-13.28h0ZM43.66,95.72l-1.91-12.16,7.12-9.78h12.25l7.12,9.78-1.91,12.16c-7.38,2.31-15.28,2.31-22.66,0h-.03Z"/>
</svg>