<?xml version="1.0" encoding="UTF-8"?>
<svg id="Camada_1" xmlns="http://www.w3.org/2000/svg" version="1.1" viewBox="0 0 110 135">
  <!-- Generator: Adobe Illustrator 30.0.0, SVG Export Plug-In . SVG Version: 2.1.1 Build 123)  -->
  <path d="M68.45,59.32c-.13-5.65-1.98-10.94-5.06-15.32-.03-.05-.06-.1-.1-.14-4.21-5.91-10.7-10.15-18.27-11.35-.02,0-.03,0-.05,0-.8-.13-1.62-.23-2.45-.29-5.94-.41-11.58,1.09-16.32,3.96-.07.03-.13.07-.2.12-2.94,1.82-5.53,4.17-7.62,6.93-.07.06-.12.14-.16.21-3.06,4.12-5.03,9.14-5.41,14.64-.51,7.42,1.89,14.6,6.78,20.21,4.89,5.61,11.66,8.98,19.09,9.5.02,0,.04,0,.06,0,.64.04,1.27.07,1.9.07,6.72,0,13.13-2.39,18.25-6.85.07-.07.14-.13.22-.2,0,0,.02,0,.03-.02s.01-.02.02-.03c5.45-4.87,8.73-11.54,9.23-18.85.06-.86.07-1.7.05-2.55v-.05h0ZM57.28,64.44l-8.66-4.11c-.37-3.37-1.18-6.48-2.41-9.27l5.91-7.34c2.71,1.16,5.26,2.68,7.56,4.52l2.6,8.91c-1.19,2.89-2.87,5.34-5,7.29h0ZM53.99,75.04c-3.14,1.11-6.09,1.68-9.21,1.77-1.79-2.29-3.18-4.75-4.27-7.49,3.16-2.19,5.66-4.6,7.62-7.36l8.4,3.99c-.45,3.16-1.3,6.21-2.54,9.09h0ZM26.72,81.13c3.05,1.59,6.39,2.9,9.93,3.91l.52.88c-4-.52-7.75-1.94-11.05-4.14.2-.22.39-.45.59-.66h0ZM36.99,83.37c-3.54-1.02-6.87-2.35-9.89-3.96-1.69-2.07-2.8-4.82-3.31-8.15,2.31-1.34,4-2.96,6.19-5.14,2.57,1.54,5.49,2.7,8.89,3.57,1.1,2.84,2.58,5.47,4.39,7.86l-6.27,5.82h0ZM19.1,53.7c2.2.91,5,1.52,8.7,1.91.01,3.64.42,6.14,1.15,9.16-2.3,2.28-3.88,3.83-6.11,5.1-3.04-1.57-5.7-3.92-7.95-6.09.93-4.01,2.54-7.22,4.2-10.09h0ZM44.98,49.89c-3.35-1.37-5.87-1.98-8.1-2.52-.48-.12-.93-.23-1.39-.34-.36-2.82-.28-6.64.21-9.86,2.77-1.44,5.61-2.39,8.89-2.95,2.64,2.09,5.12,5.7,6.3,8.33l-5.91,7.35h0ZM34.71,35.78l-4.39.18c2.72-1.17,5.67-1.89,8.74-2.07-1.49.52-2.93,1.14-4.35,1.9h0ZM34.92,48.62c.52.13,1.03.26,1.57.39,2.34.57,4.76,1.16,8.12,2.55,1.22,2.71,2.02,5.78,2.37,9.11-1.91,2.78-4.42,5.21-7.63,7.4-3.34-.85-6.19-1.99-8.68-3.5,0,0,0,0-.01,0-.77-3.14-1.18-5.66-1.15-9.51,1.46-2.72,3.24-4.83,5.42-6.44h0ZM63.88,56.61l-2.52-8.62c.47-.5.93-1.14,1.38-1.9,2.21,3.5,3.61,7.55,3.94,11.86l-2.81-1.34ZM61.68,44.52c-.45.86-.9,1.57-1.36,2.09-2.39-1.86-5.02-3.4-7.82-4.57-.96-2.21-2.72-4.99-4.81-7.23,5.71,1.61,10.59,5.09,13.99,9.71h0ZM26.81,37.79l7.14-.29c-.45,3.3-.49,6.98-.12,9.82-2.25,1.69-4.11,3.86-5.64,6.62-3.68-.38-6.49-.99-8.57-1.87l.19-7.91c1.93-2.53,4.31-4.7,7.01-6.38h0ZM18.05,46.77l-.13,5.61c-1.25,2.11-2.47,4.4-3.46,7.05,0-.41.03-.82.05-1.23.29-4.17,1.55-8.04,3.54-11.43h0ZM20.88,77.18c-2.74-3.15-4.64-6.82-5.64-10.75,2,1.82,4.29,3.62,6.85,4.95.52,3.47,1.64,6.38,3.35,8.66-.24.25-.48.51-.71.77-1.39-1.06-2.68-2.27-3.86-3.62h0ZM39.25,86.12l-.96-1.64,6.45-5.98c3.27-.09,6.36-.66,9.63-1.8l3.01,3.38c-5.09,4.26-11.5,6.39-18.13,6.04h0ZM66.71,61.8c-.46,6.59-3.31,12.63-8.07,17.15l-3.04-3.41c1.3-3.06,2.2-6.31,2.64-9.66,2.26-2.03,4.06-4.56,5.37-7.53l3.16,1.5c0,.65,0,1.3-.05,1.95h0ZM78.63,42.19c.46,0,.84.38.84.84s-.38.84-.84.84h-9.91c-.46,0-.84-.38-.84-.84s.38-.84.84-.84h9.91ZM90.15,50.96c0-.46.38-.84.84-.84h2.94c.46,0,.84.38.84.84s-.38.84-.84.84h-2.94c-.46,0-.84-.38-.84-.84ZM86.42,51.81h-17.27c-.46,0-.84-.38-.84-.84s.38-.84.84-.84h17.27c.46,0,.84.38.84.84s-.38.84-.84.84ZM83.82,67.98c0,.46-.38.84-.84.84h-12.97c-.46,0-.84-.38-.84-.84s.38-.84.84-.84h12.96c.46,0,.84.38.84.84ZM97.25,59.61c0,.46-.38.84-.84.84h-23.07c-.46,0-.84-.38-.84-.84s.38-.84.84-.84h23.07c.46,0,.84.38.84.84ZM76.09,36.26c0-.46.38-.84.84-.84h7.62c.46,0,.84.38.84.84s-.38.84-.84.84h-7.62c-.46,0-.84-.38-.84-.84ZM58.93,36.26c0-.46.38-.84.84-.84h12.58c.46,0,.84.38.84.84s-.38.84-.84.84h-12.58c-.46,0-.84-.38-.84-.84Z"/>
  <text/>
  <text/>
</svg>