<?xml version="1.0" encoding="UTF-8"?>
<svg id="Camada_1" xmlns="http://www.w3.org/2000/svg" version="1.1" viewBox="0 0 110 135">
  <!-- Generator: Adobe Illustrator 30.0.0, SVG Export Plug-In . SVG Version: 2.1.1 Build 123)  -->
  <defs>
    <style>
      .st0 {
        fill: #175086;
      }
    </style>
  </defs>
  <path class="st0" d="M94.29,67.51c.31-1.69.48-3.42.48-5.18,0-8.09-3.38-15.4-8.8-20.59-.04-.06-.1-.11-.16-.15-5.11-4.82-11.98-7.79-19.54-7.8h-.02c-4.79,0-9.43,1.2-13.56,3.43-.02,0-.04.02-.06.03-2.09,1.14-4.05,2.54-5.83,4.2-5.03,4.7-8.16,10.98-8.89,17.77-4.03-2.24-8.67-5.12-11.89-8.96-4.63-5.52-5.35-11.76-2.19-19.06.12-.27.03-.59-.2-.77-.24-.18-.57-.17-.79.02-5.17,4.35-7.79,10.27-7.57,17.1.17,5.43,2.06,10.42,3.78,13.28,4.98,8.29,13.01,12.76,16.54,14.7l-3.59,4.91c-.14.2-.16.46-.05.68.11.21.33.34.56.34h.04l12.06-.64c4.35,5.08,10.26,8.43,16.73,9.56h.06c1.59.29,3.21.43,4.86.43h.02c1.66,0,3.31-.15,4.91-.43h0c5.73-.99,11.02-3.71,15.23-7.91,4.14-4.13,6.84-9.31,7.88-14.94,0-.02,0-.03,0-.04h-.01ZM93.46,63.35l-1-4.77c-.06-.27-.28-.48-.56-.5-.27-.03-.54.12-.65.38l-3.64,8.21-8.77-.95-7.14-5.18,2.75-8.38,6.55-5.91,7.77,4.52c.24.14.54.11.75-.08.21-.18.27-.48.16-.73l-1.96-4.4c3.62,4.63,5.79,10.45,5.79,16.77,0,.34-.01.68-.03,1.02h0ZM89.85,75.91c-.08.01-.15.04-.23.07l-6.47,3.75,3.06-6.82c.11-.25.05-.55-.16-.74l-5.56-5,7.43.8c.28.03.54-.12.65-.38l3.03-6.83,1.39,6.63c-.57,3-1.63,5.87-3.16,8.5h0ZM66.24,73.22l-2.29-7.11c-.09-.27-.33-.44-.61-.44h-7.47s6.06-4.37,6.06-4.37c.23-.16.32-.45.23-.71l-2.32-7.11,6.04,4.41c.22.16.53.16.75,0l6.04-4.4-2.33,7.1c-.09.27,0,.55.23.71l6.05,4.39-7.47-.02c-.28,0-.52.18-.61.44l-2.3,7.11h0ZM76.2,42.01l-6.48-3.73,7.43-.76c.07,0,.15-.03.21-.06,2.81,1.26,5.37,2.99,7.58,5.08l2.74,6.14-6.46-3.75c-.24-.14-.54-.11-.75.08l-5.55,5.01,1.57-7.3c.06-.27-.07-.55-.3-.69h0ZM66.25,35.07h.02c3,0,5.88.5,8.58,1.4l-7.22.74c-.28.03-.5.23-.56.5-.06.27.07.55.3.69l7.79,4.48-1.84,8.55-7.07,5.15-7.12-5.2-3.59-8.05,6.7-6c.21-.18.27-.48.16-.73s-.38-.41-.65-.38l-4.8.51c2.91-1.07,6.05-1.66,9.31-1.66h0ZM53.25,38.41l6.66-.71-5.57,4.98c-.21.18-.27.48-.16.73l3.05,6.82-6.46-3.75c-.24-.14-.54-.11-.75.08l-5.55,5.01,1.57-7.3c.02-.07.02-.13.01-.2,2.06-2.27,4.49-4.19,7.19-5.67h0ZM37.03,75.72c.11-.15.15-.34.11-.52-.04-.18-.15-.33-.31-.42-.16-.09-.34-.19-.54-.3-3.38-1.86-11.31-6.23-16.16-14.29-1.56-2.59-3.44-7.46-3.6-12.66-.17-5.58,1.55-10.35,5.14-14.21-1,3.16-1.28,6.18-.82,9,.5,3.1,1.91,6.05,4.19,8.76,3.59,4.29,8.82,7.39,13.12,9.74h0c.62.34,1.22.66,1.8.97.37.2.73.39,1.09.59.18.1.39.1.57.02.18-.09.32-.25.36-.45l1.13-5.24,18.48,21.94-27.78,1.47,3.23-4.4h0ZM46.21,80.75l16.73-.88c.24-.01.46-.16.55-.38.1-.22.06-.48-.1-.66l-20.15-23.91c-.16-.19-.41-.27-.64-.21-.24.06-.42.25-.47.48l-1.22,5.68c-.11-.06-.23-.12-.34-.18-.46-.25-.95-.51-1.43-.78.45-5.11,2.32-9.81,5.2-13.72l-1.52,7.06c-.06.27.07.55.3.69.1.06.21.09.32.09.16,0,.31-.05.43-.16l6.67-6.02,7.56,4.39,2.71,8.31-7.29,5.26c-.23.16-.32.45-.23.71.09.27.32.44.61.44h8.99s2.69,8.35,2.69,8.35l-2.7,8.36-8.99-.02c-.28,0-.52.18-.61.44-.09.26,0,.55.23.71l5.02,3.64c-4.68-1.38-8.94-4.01-12.32-7.68h0ZM66.25,89.55h-.02c-1.52,0-3.03-.13-4.5-.38l-5.88-4.26,7.47.02c.28,0,.52-.18.61-.44l2.3-7.11,2.29,7.11c.09.27.33.44.61.44h7.47s-5.88,4.24-5.88,4.24c-1.47.24-2.97.37-4.48.37h0ZM85.5,81.58c-3.28,3.28-7.25,5.61-11.58,6.87l5.05-3.65c.23-.16.32-.45.23-.71-.09-.26-.33-.44-.61-.44h-8.99s-2.69-8.35-2.69-8.35l2.7-8.36,8.74.02,6.5,5.84-3.68,8.2c-.11.25-.05.55.16.73.12.11.27.16.43.16.11,0,.22-.03.32-.09l6.3-3.64c-.86,1.2-1.82,2.34-2.89,3.4h0ZM31.28,29.53c.02-.22.22-.38.44-.36.22.02.38.22.36.44-.55,5.23,2.73,9.44,9.77,12.51.2.09.29.32.21.53-.07.15-.21.24-.37.24-.05,0-.11-.01-.16-.04-7.39-3.22-10.84-7.7-10.24-13.32h0ZM28.69,45.28c-.12-.18-.08-.43.1-.55.18-.12.43-.08.55.1,1.61,2.33,4.31,3.7,6.1,4.61.48.24.89.45,1.19.64.19.11.25.36.13.55-.07.12-.21.19-.34.19-.07,0-.14-.02-.21-.06-.28-.17-.68-.37-1.14-.61-1.86-.95-4.67-2.37-6.39-4.86h0Z"/>
</svg>