<?xml version="1.0" encoding="UTF-8"?>
<svg id="Camada_1" xmlns="http://www.w3.org/2000/svg" version="1.1" viewBox="0 0 110 135">
  <!-- Generator: Adobe Illustrator 30.0.0, SVG Export Plug-In . SVG Version: 2.1.1 Build 123)  -->
  <defs>
    <style>
      .st0 {
        fill: #066b30;
      }

      .st1 {
        fill: #0e365d;
      }
    </style>
  </defs>
  <path class="st0" d="M57.82,93.44c-3.83,0-7.61-.61-11.25-1.83-6.87-2.31-12.8-6.61-17.17-12.45-4.54-6.13-6.93-13.41-6.93-21.07v-.33c.09-7.37,2.36-14.35,6.57-20.2,4.45-6.22,10.9-10.91,18.17-13.19,6.74-2.15,14.45-2.15,21.21,0,7.26,2.28,13.71,6.96,18.17,13.19,4.21,5.85,6.48,12.82,6.57,20.17v.36c0,7.66-2.39,14.94-6.92,21.06-4.37,5.85-10.31,10.15-17.17,12.46-3.64,1.21-7.42,1.83-11.25,1.83h0ZM57.82,26.91c-3.23,0-6.38.48-9.35,1.43-6.42,2.01-12.12,6.15-16.04,11.65-3.72,5.16-5.72,11.32-5.79,17.8v.31c0,6.76,2.11,13.19,6.11,18.58,3.85,5.15,9.09,8.96,15.15,10.99,6.41,2.14,13.44,2.14,19.86,0,6.06-2.04,11.3-5.84,15.15-11,3.99-5.39,6.1-11.82,6.1-18.58v-.32c-.08-6.49-2.08-12.64-5.79-17.79-3.93-5.51-9.63-9.64-16.04-11.65-2.98-.95-6.13-1.43-9.36-1.43h0Z"/>
  <path class="st1" d="M65.32,71.72h-15.01c-.9,0-1.7-.58-1.98-1.44l-4.64-14.28c-.28-.86.03-1.79.76-2.33l12.14-8.82c.73-.53,1.72-.53,2.44,0l12.14,8.82c.73.53,1.03,1.47.76,2.33l-4.64,14.28c-.28.86-1.08,1.44-1.98,1.44h0ZM51.82,67.56h11.99l3.7-11.4-9.7-7.05-9.7,7.05,3.7,11.4h.01Z"/>
  <path class="st0" d="M57.82,35.69c-.43,0-.86-.13-1.22-.4l-9.98-7.26c-.63-.46-.95-1.24-.83-2.01.12-.77.67-1.41,1.42-1.65,6.76-2.15,14.46-2.15,21.22,0,.75.24,1.3.88,1.42,1.65.13.77-.19,1.55-.83,2.01l-9.98,7.26c-.37.27-.79.4-1.22.4h0ZM52.7,27.32l5.12,3.72,5.12-3.72c-3.34-.55-6.89-.55-10.23,0h-.01Z"/>
  <path class="st0" d="M24.55,59.84c-.33,0-.66-.08-.96-.23-.7-.36-1.13-1.09-1.12-1.87.09-7.35,2.36-14.33,6.57-20.18.46-.64,1.24-.96,2.01-.84.77.12,1.41.67,1.66,1.41l3.8,11.75c.28.86-.03,1.79-.76,2.32l-9.98,7.23c-.36.26-.79.4-1.22.4h0ZM30.13,43.69c-1.59,3.03-2.65,6.32-3.16,9.75l5.11-3.71-1.95-6.04Z"/>
  <path class="st0" d="M47.23,91.72c-.22,0-.45-.04-.66-.11-6.87-2.31-12.8-6.61-17.16-12.45-.47-.63-.55-1.47-.19-2.18.35-.7,1.07-1.15,1.86-1.15h12.36c.9,0,1.7.58,1.98,1.44l3.8,11.73c.24.75.04,1.57-.52,2.12-.4.39-.92.6-1.46.6h0ZM35.59,79.99c2.42,2.45,5.21,4.47,8.27,6l-1.95-6h-6.33,0Z"/>
  <path class="st0" d="M68.41,91.72c-.54,0-1.07-.21-1.46-.6-.56-.55-.76-1.37-.52-2.12l3.8-11.73c.28-.86,1.08-1.44,1.98-1.44h12.36c.79,0,1.51.44,1.86,1.15.35.7.28,1.55-.19,2.18-4.36,5.84-10.3,10.14-17.16,12.45-.22.07-.44.11-.66.11h0ZM73.72,79.99l-1.95,6c3.07-1.53,5.85-3.55,8.27-6h-6.33,0Z"/>
  <path class="st0" d="M91.08,59.84c-.43,0-.86-.13-1.22-.4l-9.98-7.23c-.73-.53-1.03-1.47-.76-2.32l3.8-11.75c.24-.75.88-1.29,1.66-1.41.77-.12,1.55.2,2.01.84,4.22,5.85,6.49,12.83,6.57,20.18,0,.79-.43,1.51-1.12,1.87-.3.16-.63.23-.96.23h0ZM83.54,49.73l5.11,3.71c-.51-3.43-1.57-6.71-3.16-9.75l-1.95,6.04Z"/>
  <path d="M57.82,48.63c-1.15,0-2.08-.93-2.08-2.08v-12.95c0-1.15.93-2.08,2.08-2.08s2.08.93,2.08,2.08v12.95c0,1.15-.93,2.08-2.08,2.08Z"/>
  <path d="M69.96,57.45h-.09c-.98-.04-1.86-.79-2.02-1.76-.32-1.93-.34-2.05,12.5-7.09,1.07-.42,2.28.11,2.7,1.17.42,1.06-.11,2.28-1.17,2.7-4.23,1.66-8.97,3.61-10.38,4.32-.38.41-.93.67-1.53.67h0Z"/>
  <path d="M72.28,80c-.47,0-.94-.15-1.33-.44-.22-.17-.73-.56-7.24-8.61-.72-.89-.58-2.2.31-2.92.89-.72,2.2-.58,2.92.31,2.88,3.56,6.15,7.53,6.65,8.02.91.69,1.03,1.95.33,2.86-.4.52-1.02.79-1.64.79h0Z"/>
  <path d="M43.42,79.98c-.47,0-.94-.16-1.33-.48-.88-.74-1-2.05-.27-2.93l6.89-8.26c.74-.88,2.04-1,2.93-.27.88.74,1,2.05.27,2.93l-6.89,8.26c-.41.49-1,.75-1.6.75Z"/>
  <path d="M45.67,57.45c-.28,0-.56-.06-.83-.17l-11.15-4.84c-1.05-.46-1.54-1.68-1.08-2.74.46-1.05,1.68-1.53,2.74-1.08l11.15,4.84c1.05.46,1.54,1.68,1.08,2.74-.34.78-1.11,1.25-1.91,1.25h0Z"/>
  <path d="M21.78,96.21c-.53,0-1.06-.2-1.47-.61-.81-.81-.81-2.13,0-2.94l12.51-12.51c.81-.81,2.13-.81,2.94,0,.81.81.81,2.13,0,2.94l-12.51,12.51c-.41.41-.94.61-1.47.61h0Z"/>
  <path d="M19.01,82.35c-.53,0-1.06-.2-1.47-.61-.81-.81-.81-2.13,0-2.94l8.51-8.51c.81-.81,2.13-.81,2.94,0,.81.81.81,2.13,0,2.94l-8.51,8.51c-.41.41-.94.61-1.47.61h0Z"/>
  <path d="M19.01,68.49c-.53,0-1.06-.2-1.47-.61-.81-.81-.81-2.13,0-2.94l5.66-5.66c.81-.81,2.13-.81,2.94,0,.81.81.81,2.13,0,2.94l-5.66,5.66c-.41.41-.94.61-1.47.61h0Z"/>
  <path d="M35.64,98.98c-.53,0-1.06-.2-1.47-.61-.81-.81-.81-2.13,0-2.94l8.51-8.51c.81-.81,2.13-.81,2.94,0,.81.81.81,2.13,0,2.94l-8.51,8.51c-.41.41-.94.61-1.47.61h0Z"/>
  <path d="M52.27,98.98c-.53,0-1.06-.2-1.47-.61-.81-.81-.81-2.13,0-2.94l5.66-5.66c.81-.81,2.13-.81,2.94,0,.81.81.81,2.13,0,2.94l-5.66,5.66c-.41.41-.94.61-1.47.61h0Z"/>
</svg>