<?xml version="1.0" encoding="UTF-8"?>
<svg id="Camada_1" xmlns="http://www.w3.org/2000/svg" version="1.1" viewBox="0 0 110 135">
  <!-- Generator: Adobe Illustrator 30.0.0, SVG Export Plug-In . SVG Version: 2.1.1 Build 123)  -->
  <defs>
    <style>
      .st0 {
        fill: #088036;
      }
    </style>
  </defs>
  <path class="st0" d="M18.12,98.24c7.09.76,21.98,1.13,36.88,1.13s29.79-.38,36.88-1.13c5.77-.67,11.31-6.21,11.98-11.98,1.52-14.17,1.52-38.33,0-52.5-.67-5.78-6.21-11.32-11.98-11.99-7.09-.76-21.98-1.14-36.88-1.14s-29.79.38-36.88,1.14c-5.78.67-11.32,6.21-11.99,11.99-1.52,14.17-1.52,38.33,0,52.5.67,5.78,6.21,11.32,11.99,11.98ZM97.37,71.96c-2.79.05-6.04,0-8.01-.15-.23-4.04-.23-19.59,0-23.63,1.97-.15,5.21-.2,8.01-.15.27,7.7.27,16.23,0,23.93h0ZM58.7,50.09c4.14,1.55,6.88,5.5,6.88,9.92s-2.74,8.37-6.88,9.92v-19.84ZM58.7,77.64c5.43-1.14,10.04-4.73,12.48-9.72,2.44-4.99,2.44-10.83,0-15.82-2.44-4.99-7.04-8.58-12.48-9.72v-14.32c14.33.06,26.51.46,32.35,1.08,2.32.29,5.15,3.12,5.44,5.44.2,1.84.36,3.87.51,6.03-3.32-.05-7,.03-9.06.25h-.03c-2.95.34-5.53,2.93-5.87,5.87v.03c-.36,3.34-.36,23.12,0,26.46v.03c.34,2.95,2.92,5.53,5.87,5.86h.03c1.68.18,4.42.27,7.17.27.63,0,1.27,0,1.89-.02-.14,2.16-.31,4.19-.51,6.03-.29,2.32-3.12,5.15-5.44,5.44-5.84.62-18.02,1.02-32.34,1.08v-14.27ZM51.27,69.93c-4.14-1.55-6.88-5.5-6.88-9.92s2.74-8.38,6.88-9.92v19.84ZM13.51,34.58c.29-2.31,3.12-5.15,5.45-5.44,5.84-.62,18.01-1.02,32.33-1.08v14.32c-5.44,1.14-10.04,4.73-12.48,9.72-2.44,4.99-2.44,10.83,0,15.82,2.44,4.99,7.04,8.58,12.48,9.72v14.31c-14.32-.06-26.49-.46-32.33-1.08-2.32-.29-5.15-3.12-5.44-5.44-.2-1.84-.36-3.87-.51-6.03.62,0,1.24.02,1.88.02,2.75,0,5.5-.09,7.17-.27h.03c2.95-.34,5.53-2.92,5.87-5.86v-.03c.36-3.34.36-23.12,0-26.46v-.03c-.34-2.95-2.93-5.53-5.86-5.87h-.03c-2.06-.22-5.74-.3-9.05-.25.14-2.2.3-4.22.5-6.06h0ZM12.63,48.04c2.79-.05,6.03,0,7.99.15.23,4.04.23,19.59,0,23.63-1.95.15-5.2.2-7.99.15-.27-7.7-.27-16.23,0-23.93h0Z"/>
</svg>