<?xml version="1.0" encoding="UTF-8"?>
<svg id="Camada_1" xmlns="http://www.w3.org/2000/svg" version="1.1" viewBox="0 0 100 125">
  <!-- Generator: Adobe Illustrator 30.0.0, SVG Export Plug-In . SVG Version: 2.1.1 Build 123)  -->
  <path d="M67.3,50V8.48c0-1.91-1.55-3.46-3.46-3.46H8.48c-1.91,0-3.46,1.55-3.46,3.46v55.37c0,1.33.76,2.54,1.96,3.12.48.23.99.34,1.5.34.77,0,1.54-.26,2.16-.76l16.35-13.08h36.85c1.91,0,3.46-1.55,3.46-3.46ZM60.38,46.54H25.78c-.79,0-1.55.27-2.16.76l-11.68,9.34V11.94h48.44v34.6h0Z"/>
  <path d="M91.52,32.7h-17.3v6.92h13.84v44.71l-11.68-9.34c-.61-.49-1.38-.76-2.16-.76h-34.6v-13.84h-6.92v17.3c0,1.91,1.55,3.46,3.46,3.46h36.85l16.35,13.08c.62.5,1.39.76,2.16.76.51,0,1.02-.11,1.5-.34,1.2-.58,1.96-1.79,1.96-3.12v-55.37c0-1.91-1.55-3.46-3.46-3.46Z"/>
  <rect x="18.86" y="18.86" width="17.3" height="6.92"/>
  <rect x="18.86" y="32.7" width="34.6" height="6.92"/>
</svg>