<?xml version="1.0" encoding="UTF-8"?>
<svg id="Camada_1" xmlns="http://www.w3.org/2000/svg" version="1.1" viewBox="0 0 110 135">
  <!-- Generator: Adobe Illustrator 30.0.0, SVG Export Plug-In . SVG Version: 2.1.1 Build 123)  -->
  <defs>
    <style>
      .st0 {
        fill: #d9da00;
      }

      .st0, .st1 {
        fill-rule: evenodd;
      }
    </style>
  </defs>
  <path class="st0" d="M29.18,109.98c-10.06,0-18.25-8.18-18.25-18.25s8.18-18.25,18.25-18.25,18.25,8.18,18.25,18.25-8.18,18.25-18.25,18.25ZM29.18,76.62c-8.34,0-15.12,6.79-15.12,15.12s6.79,15.12,15.12,15.12,15.12-6.79,15.12-15.12-6.79-15.12-15.12-15.12Z"/>
  <path class="st0" d="M29.18,99.41c-.27,0-.54-.07-.78-.21l-5.29-3.05c-.48-.28-.78-.8-.78-1.35v-6.11c0-.56.3-1.07.78-1.35l5.29-3.05c.48-.28,1.08-.28,1.56,0l5.29,3.05c.48.28.78.8.78,1.35v6.11c0,.56-.3,1.07-.78,1.35l-5.29,3.05c-.24.14-.51.21-.78.21ZM25.45,93.89l3.73,2.15,3.73-2.15v-4.3l-3.73-2.15-3.73,2.15v4.3Z"/>
  <path class="st0" d="M29.18,87.2c-.86,0-1.56-.7-1.56-1.56v-10.58c0-.86.7-1.56,1.56-1.56s1.56.7,1.56,1.56v10.58c0,.86-.7,1.56-1.56,1.56Z"/>
  <path class="st0" d="M23.89,90.25c-.33,0-.66-.11-.95-.32l-8.45-6.43c-.69-.52-.82-1.5-.3-2.19.52-.69,1.5-.82,2.19-.3l8.45,6.43c.69.52.82,1.5.3,2.19-.31.41-.77.62-1.25.62h0Z"/>
  <path class="st0" d="M15,102.1c-.51,0-1.02-.25-1.31-.71-.47-.72-.26-1.69.46-2.16l8.89-5.75c.73-.47,1.69-.26,2.16.46.47.72.26,1.69-.46,2.16l-8.89,5.75c-.26.17-.56.25-.85.25h0Z"/>
  <path class="st0" d="M29.18,109.98c-.86,0-1.56-.7-1.56-1.56v-10.58c0-.86.7-1.56,1.56-1.56s1.56.7,1.56,1.56v10.58c0,.86-.7,1.56-1.56,1.56Z"/>
  <path class="st0" d="M44.39,100.3c-.19,0-.39-.04-.57-.11l-9.92-3.95c-.8-.32-1.2-1.23-.88-2.03.32-.8,1.23-1.19,2.03-.88l9.92,3.95c.8.32,1.2,1.23.88,2.03-.25.61-.83.98-1.45.98h0Z"/>
  <path class="st0" d="M34.47,90.25c-.45,0-.9-.2-1.21-.57-.54-.67-.45-1.65.23-2.2l8.25-6.71c.67-.55,1.65-.45,2.2.23.54.67.45,1.65-.23,2.2l-8.25,6.71c-.29.24-.64.35-.98.35h0Z"/>
  <path class="st1" d="M84.08,88.77c-.4,0-.8-.15-1.11-.46-.61-.61-.61-1.6,0-2.21l7.73-7.73c.61-.61,1.6-.61,2.21,0s.61,1.6,0,2.21l-7.73,7.73c-.3.3-.71.46-1.11.46h0Z"/>
  <path class="st1" d="M79.14,84c-.4,0-.8-.15-1.11-.46-.61-.61-.61-1.6,0-2.21l6.51-6.51c.61-.61,1.6-.61,2.21,0s.61,1.6,0,2.21l-6.51,6.51c-.3.3-.71.46-1.11.46h0Z"/>
  <path class="st1" d="M70.96,96.41c-.27,0-.54-.07-.78-.21l-4.49-2.59c-.48-.28-.78-.8-.78-1.35v-5.18c0-.56.3-1.07.78-1.35l4.49-2.59c.48-.28,1.08-.28,1.56,0l4.49,2.59c.48.28.78.8.78,1.35v5.18c0,.56-.3,1.07-.78,1.35l-4.49,2.59c-.24.14-.51.21-.78.21h0ZM68.03,91.36l2.93,1.69,2.93-1.69v-3.38l-2.93-1.69-2.93,1.69v3.38Z"/>
  <path class="st1" d="M61.82,67.19c-.61,0-1.23-.03-1.86-.08-13.23-1.09-19.94-10.71-19.94-28.6,0-2.87,1.11-6.29,6.36-6.29.44,0,.9.02,1.4.07,3.3.29,5.63.55,7.51.77,2.54.29,4.07.46,5.89.46,2.29,0,5.08-.27,11.46-1.13.81-.11,1.52-.16,2.16-.16,3.93,0,6.01,2.18,6.01,6.29,0,8.63-1.85,28.68-18.99,28.68h0ZM46.39,35.34c-2.45,0-3.24.77-3.24,3.17,0,16.21,5.59,24.54,17.07,25.49.55.05,1.09.07,1.61.07,13.8,0,15.86-16.01,15.86-25.56,0-2.68-.97-3.17-2.88-3.17-.5,0-1.07.04-1.74.14-6.62.89-9.39,1.16-11.88,1.16-2,0-3.69-.19-6.24-.48-1.86-.21-4.16-.47-7.43-.76-.41-.04-.79-.05-1.13-.05h0Z"/>
  <path class="st1" d="M94.45,109.94H30.42c-.86,0-1.56-.7-1.56-1.56s.7-1.56,1.56-1.56h64.04c.32,0,.63-.13.87-.36s.36-.54.36-.86c0-1.77.06-3.59.13-5.34.3-7.75.58-15.07-4.99-19.56-.53-.43-1.12-.84-1.76-1.21-1.69-.99-3.7-2.01-6.12-3.1-2.35-1.06-5.05-2.17-8.27-3.41l-13.59,6.39c-.42.2-.91.2-1.33,0l-13.59-6.39c-4.31,1.66-7.78,3.13-10.58,4.49-.78.38-1.71.05-2.09-.72-.38-.77-.05-1.71.72-2.09,3.02-1.46,6.76-3.05,11.45-4.84.39-.15.84-.14,1.22.05l13.53,6.36,13.53-6.36c.39-.18.82-.2,1.22-.05,3.54,1.35,6.5,2.56,9.05,3.71,2.53,1.14,4.63,2.21,6.42,3.25.77.45,1.49.95,2.14,1.47,6.79,5.47,6.46,13.93,6.15,22.11-.07,1.73-.13,3.51-.13,5.21,0,1.16-.45,2.25-1.27,3.07-.82.83-1.92,1.29-3.08,1.29h0Z"/>
  <path class="st1" d="M74.61,72.85c-.43,0-.87-.18-1.18-.53-3.01-3.43-3.45-6.86-3.78-9.38l-.02-.18c-.11-.86.49-1.64,1.35-1.75.86-.11,1.64.49,1.75,1.35l.02.18c.3,2.34.65,5,3.03,7.71.57.65.5,1.64-.14,2.2-.3.26-.66.39-1.03.39h0Z"/>
  <path class="st1" d="M46.22,72.85c-.37,0-.73-.13-1.03-.39-.65-.57-.71-1.55-.14-2.2,2.81-3.2,3.05-6.25,3.23-8.47.07-.86.82-1.5,1.68-1.43.86.07,1.5.82,1.43,1.68-.2,2.51-.5,6.3-4,10.28-.31.35-.74.53-1.18.53h0Z"/>
  <path class="st1" d="M83.45,109.94c-.86,0-1.56-.7-1.56-1.56v-9.99c0-.86.7-1.56,1.56-1.56s1.56.7,1.56,1.56v9.99c0,.86-.7,1.56-1.56,1.56Z"/>
  <path class="st1" d="M60.71,58.81c-1.95,0-3.83-.91-5.62-2.7-.61-.61-.61-1.6,0-2.21.61-.61,1.6-.61,2.21,0,1.25,1.25,2.45,1.84,3.61,1.77,1.69-.1,2.88-1.61,2.89-1.62.53-.68,1.5-.8,2.19-.28.68.52.82,1.49.3,2.18-.08.11-2.02,2.62-5.14,2.84-.14,0-.29.02-.43.02h0Z"/>
  <path class="st1" d="M68.57,46.54c-.86,0-1.56-.7-1.56-1.56v-1.71c0-.86.7-1.56,1.56-1.56s1.56.7,1.56,1.56v1.71c0,.86-.7,1.56-1.56,1.56Z"/>
  <path class="st1" d="M51.91,46.54c-.86,0-1.56-.7-1.56-1.56v-1.71c0-.86.7-1.56,1.56-1.56s1.56.7,1.56,1.56v1.71c0,.86-.7,1.56-1.56,1.56Z"/>
  <path class="st1" d="M79.21,39.25c-.08,0-.17,0-.25-.02-.85-.14-1.43-.94-1.29-1.79,1.84-11.27,1.61-15.51-5.3-22.69l-.8,2.21c-.18.49-.59.85-1.09.98-.5.12-1.04,0-1.42-.35-7.07-6.29-12.08-4.59-17.4-2.79-2.84.96-5.76,1.96-8.93,1.65l1.86,8.02c.13.57-.06,1.16-.51,1.54-.44.38-1.06.48-1.6.26l-2.47-1c-.29,4.58,1.34,8.04,2.47,10.43.21.46.41.87.57,1.25.34.79-.03,1.71-.82,2.05-.79.34-1.71-.02-2.05-.82-.15-.34-.33-.72-.53-1.14-1.36-2.89-3.64-7.71-2.48-14.25.08-.46.37-.87.78-1.09.41-.23.91-.26,1.34-.08l1.57.64-1.73-7.46c-.13-.55.05-1.12.46-1.5.41-.38,1-.51,1.54-.34,3.19,1.04,6.12.04,9.51-1.11,5.25-1.78,11.15-3.78,18.72,1.96l.89-2.44c.18-.5.6-.87,1.12-.99.51-.12,1.05.03,1.44.4,9.28,8.96,10.06,14.11,7.93,27.15-.13.77-.79,1.31-1.54,1.31h.02Z"/>
</svg>