<?xml version="1.0" encoding="UTF-8"?>
<svg id="Camada_1" xmlns="http://www.w3.org/2000/svg" version="1.1" viewBox="0 0 110 135">
  <!-- Generator: Adobe Illustrator 30.0.0, SVG Export Plug-In . SVG Version: 2.1.1 Build 123)  -->
  <defs>
    <style>
      .st0 {
        fill: #375da8;
      }
    </style>
  </defs>
  <path class="st0" d="M14.15,93.95c.57.4,1.35.35,1.86-.12.08-.07,6.28-5.5,20.54-8.35,4.37,4.42,10.19,8.34,17.97,10.94.15.05.31.08.47.08s.32-.03.47-.08c7.78-2.59,13.6-6.52,17.97-10.94,14.27,2.85,20.46,8.27,20.54,8.34.28.26.65.39,1.01.39.3,0,.59-.09.85-.27.58-.4.8-1.14.54-1.79l-3.57-8.98,3.38-4.57c.46-.62.37-1.48-.19-2-.27-.25-4.16-3.7-12.71-6.64,3.11-8.15,3.2-14.84,3.2-14.98v-19.98c0-.83-.67-1.5-1.5-1.5-8.21,0-8.49-7.63-8.5-8.5,0-.83-.67-1.5-1.5-1.5h-39.98c-.82,0-1.49.67-1.5,1.5,0,.87-.29,8.5-8.5,8.5-.83,0-1.5.67-1.5,1.5v20c0,.14.08,6.83,3.2,14.98-8.55,2.94-12.43,6.39-12.71,6.64-.57.52-.65,1.38-.19,2l3.38,4.57-3.57,8.98c-.26.65-.03,1.39.54,1.78ZM20.27,83.51c.19-.48.12-1.03-.19-1.45l-3-4.06c3.4-2.4,15.11-9.24,37.92-9.24s34.52,6.84,37.92,9.24l-3,4.06c-.31.42-.38.96-.19,1.45l2.07,5.22c-5.66-3.21-17.32-7.97-36.81-7.97s-31.14,4.75-36.8,7.97l2.07-5.22h.01ZM26.5,36.42c6.9-.68,9.39-6.08,9.9-9.93h37.21c.51,3.85,3,9.24,9.9,9.93v18.57c0,.54-.09,6.69-2.93,14.11-1.75-.51-3.66-1-5.74-1.43,2.08-3.52,3.22-7.57,3.22-11.75,0-.66-.03-1.31-.09-1.96-.01-.2-.02-.39-.05-.58-.11-.97-.28-1.94-.51-2.88,0-.03-.01-.06-.02-.09-.14-.59-.3-1.17-.49-1.74-.07-.21-.15-.41-.23-.62-2.53-6.97-8.24-12.31-15.47-14.35-.11-.03-.22-.06-.34-.08-.3-.08-.61-.15-.92-.21-.16-.04-.32-.08-.48-.11-2.91-.58-6-.58-8.93,0-.15.03-.3.07-.45.1-.32.07-.64.14-.96.22-.12.02-.23.05-.4.1-3.63,1.03-6.99,2.96-9.7,5.58-1.38,1.33-2.6,2.82-3.62,4.45-.96,1.53-1.74,3.18-2.32,4.92-.5,1.51-.85,3.1-1.02,4.69-.02.2-.04.4-.04.54v.08h0c-.06.59-.09,1.21-.09,1.94,0,4.19,1.11,8.21,3.22,11.75-2.07.43-3.99.91-5.73,1.43-2.84-7.42-2.93-13.57-2.93-14.11v-18.56h0ZM35.38,51.7c.15-.71.34-1.4.57-2.08.51-1.52,1.18-2.96,2.01-4.28.39-.63.82-1.23,1.27-1.81l1.34,6.05-5.19,2.11h0ZM52.28,36.05c.21-.03.42-.05.63-.07.25-.03.5-.06.76-.07.16-.01.32-.01.49-.02.56-.02,1.13-.02,1.69,0,.16,0,.33,0,.49.02.25.02.5.05.74.07.21.02.43.04.64.07.06,0,.12.02.18.03l-2.9,3.83-2.9-3.83c.06,0,.12-.02.18-.03ZM68.28,40.89l-1.89,8.53-3.72,1.57-6.17-4.53v-3.57l4.6-6.08c2.69.86,5.12,2.25,7.18,4.07h0ZM75.06,55.93c0,3.91-1.15,7.68-3.22,10.89l-7.46-1.12-2.56-4.09,1.93-7.81,3.95-1.67,7.33,2.98c.01.27.03.55.03.82ZM50.97,60.37l-1.75-7.05,5.77-4.23,5.77,4.23-1.75,7.05h-8.06.02ZM74.62,51.7l-5.19-2.11,1.34-6.05c.46.58.88,1.18,1.27,1.81.83,1.33,1.51,2.76,2.01,4.28.23.68.41,1.37.57,2.08h0ZM48.9,36.82l4.6,6.08v3.57l-6.17,4.53-3.72-1.57-1.89-8.51c2.06-1.83,4.51-3.23,7.18-4.09h0ZM34.96,55.11l7.34-2.98,3.95,1.67,1.93,7.81-2.56,4.08-7.45,1.12c-2.11-3.24-3.23-6.98-3.23-10.89,0-.29,0-.56.02-.82h0ZM50.63,63.37h8.75l1.61,2.56c-1.91-.1-3.9-.16-5.98-.16s-4.07.06-5.98.16l1.61-2.56h-.01ZM55.01,83.77c5.62,0,10.55.42,14.87,1.08-3.8,3.41-8.65,6.42-14.87,8.56-6.21-2.14-11.07-5.15-14.87-8.56,4.31-.66,9.25-1.08,14.87-1.08Z"/>
</svg>