<?xml version="1.0" encoding="UTF-8"?>
<svg id="Camada_1" xmlns="http://www.w3.org/2000/svg" version="1.1" viewBox="0 0 100 125">
  <!-- Generator: Adobe Illustrator 30.0.0, SVG Export Plug-In . SVG Version: 2.1.1 Build 123)  -->
  <defs>
    <style>
      .st0 {
        fill: #d4ad05;
      }
    </style>
  </defs>
  <path class="st0" d="M93.9,39.9c-.2-.7-.9-1.2-1.6-1.3l-28.3-3.7-12.2-25.8c-.3-.7-1-1.1-1.8-1.1s-1.5.4-1.8,1.1l-12.2,25.8-28.3,3.7c-.8.1-1.4.6-1.6,1.3s0,1.5.5,2l20.7,19.6-5.2,28.1c-.1.8.2,1.5.8,2,.6.4,1.5.5,2.1.1l25-13.6,25,13.6c.3.2.6.2,1,.2s.8-.1,1.2-.4c.6-.4.9-1.2.8-2l-5.2-28.1,20.6-19.4c.5-.5.7-1.3.5-2.1ZM69.2,59.5c-.5.5-.7,1.1-.6,1.8l4.7,25-22.3-12.2c-.3-.2-.6-.2-1-.2s-.7.1-1,.2l-22.2,12.2,4.7-25c.1-.7-.1-1.3-.6-1.8l-18.5-17.5,25.2-3.3c.7-.1,1.3-.5,1.5-1.1l10.9-23,10.9,22.9c.3.6.9,1,1.5,1.1l25.2,3.4-18.4,17.5Z"/>
</svg>