<?xml version="1.0" encoding="UTF-8"?>
<svg id="Camada_1" xmlns="http://www.w3.org/2000/svg" version="1.1" viewBox="0 0 110 135">
  <!-- Generator: Adobe Illustrator 30.0.0, SVG Export Plug-In . SVG Version: 2.1.1 Build 123)  -->
  <defs>
    <style>
      .st0 {
        fill-rule: evenodd;
      }
    </style>
  </defs>
  <path class="st0" d="M22.81,25.59c2.83,4.96,5.17,9.97,7.02,15.03-5.28-1.02-10.6-2.77-15.72-5.57-.76-.41-1.71-.13-2.12.62-.41.76-.13,1.71.62,2.12,5.98,3.28,12.22,5.2,18.38,6.21,2.88,9.01,4.19,18.19,3.91,27.54-5.64,2.61-11.15,6.14-16.11,11-.62.6-.63,1.59-.02,2.21.6.62,1.59.63,2.21.02,4.25-4.16,8.93-7.29,13.74-9.68-.4,5.41-1.32,10.89-2.79,16.41-3.67,2.2-7.22,4.91-10.51,8.26-.61.62-.6,1.61.02,2.21.62.61,1.6.6,2.21-.02,3.21-3.27,6.68-5.89,10.27-8.01.1-.05.2-.11.3-.18,9.13-5.32,19.03-7.45,27.55-8.74.16,0,.32-.02.48-.07,4.33-.64,8.29-1.08,11.58-1.63,16.8-2.4,28.54-17.96,26.22-34.79-2.33-16.88-17.93-28.7-34.81-26.38-.02,0-.04,0-.06,0-9.03,1.3-24.88,4.76-40.73.63-.11-.04-.21-.07-.33-.09-4.06-1.09-8.12-2.67-12.06-4.93-.75-.43-1.7-.16-2.13.58-.43.75-.17,1.7.58,2.13,4.03,2.31,8.18,3.95,12.34,5.09h0ZM50.08,69.66c-3.99.96-8.1,2.22-12.15,3.95-.28,5.23-1.04,10.51-2.29,15.85,8.35-4.2,17.1-6.12,24.8-7.35.36-1.67.71-3.3.97-4.95-4.34-1.43-8.28-3.99-11.34-7.49h0ZM73.35,80.23c15.1-2.16,25.66-16.14,23.57-31.27-2.09-15.13-16.03-25.74-31.16-23.73-2.71.38-6.02.95-9.76,1.46.55,1.1,1.07,2.16,1.58,3.27.87-.45,1.78-.86,2.73-1.21,4.3-1.63,8.77-2.02,13.02-1.36.07,0,.14,0,.21.02.07.01.15.03.21.05,8.65,1.5,16.31,7.4,19.65,16.2,5.02,13.25-1.66,28.08-14.91,33.1-4.65,1.76-9.5,2.08-14.04,1.18-.2,1.22-.45,2.43-.71,3.66,3.43-.49,6.59-.88,9.32-1.33.04,0,.09-.02.14-.02l.13-.02h0ZM68.88,65.8l9.6-3.63,7.37,6.04c-2.27,2.43-5.12,4.38-8.44,5.64-3.36,1.27-6.82,1.69-10.17,1.36l1.65-9.4h0ZM48.93,62.19c2.88,6.26,8.34,10.64,14.6,12.34.02,0,.04,0,.05.02.18.05.37.1.55.14l1.64-9.38-8.07-6.43-8.78,3.32ZM34.41,44.48c2.54,8.42,3.76,16.98,3.64,25.69,3.32-1.34,6.68-2.38,9.96-3.23-1.04-1.57-1.91-3.27-2.61-5.1-2.13-5.63-2.15-11.55-.45-16.88-3.41.05-6.95-.08-10.55-.5h0ZM91,46.25c2.07,6.84.71,14.01-3.18,19.52l-7.37-6.03,1.65-10.12,8.9-3.37h0ZM77.36,59.24l-9.59,3.63-7.94-6.49s1.64-10.09,1.65-10.12l9.59-3.63,7.92,6.49-1.63,10.11ZM50.95,39.83c-3.84,5.5-5.18,12.63-3.12,19.43l8.78-3.32,1.79-10.17-7.45-5.94h0ZM74.58,30.82c6.57,1.55,12.33,6.02,15.31,12.51l-8.9,3.37-7.94-6.49,1.53-9.4h0ZM71.48,30.31l-1.52,9.4-9.6,3.64-7.46-5.95c2.29-2.46,5.16-4.45,8.52-5.72,3.32-1.26,6.74-1.68,10.06-1.37h0ZM26.92,26.55c2.59,4.84,4.74,9.71,6.43,14.65,4.39.6,8.72.74,12.84.62,1.91-4.06,4.88-7.62,8.7-10.24-.68-1.53-1.39-2.94-2.18-4.47-7.62.87-16.63,1.26-25.8-.56h0Z"/>
</svg>