<?xml version="1.0" encoding="UTF-8"?>
<svg id="Camada_1" xmlns="http://www.w3.org/2000/svg" version="1.1" viewBox="0 0 110 135">
  <!-- Generator: Adobe Illustrator 30.0.0, SVG Export Plug-In . SVG Version: 2.1.1 Build 123)  -->
  <defs>
    <style>
      .st0 {
        fill: #bc0e80;
      }
    </style>
  </defs>
  <path class="st0" d="M55,33.24c-14.75,0-26.76,12-26.76,26.76s12,26.76,26.76,26.76,26.76-12,26.76-26.76-12-26.76-26.76-26.76ZM55,80.46c-11.28,0-20.46-9.18-20.46-20.46s9.18-20.46,20.46-20.46,20.46,9.18,20.46,20.46-9.18,20.46-20.46,20.46ZM81.76,14.35H28.24c-9.55,0-17.31,7.77-17.31,17.31v56.67c0,9.55,7.76,17.31,17.31,17.31h53.52c9.55,0,17.31-7.77,17.31-17.31V31.67c0-9.55-7.76-17.32-17.31-17.32h0ZM92.78,88.33c0,6.07-4.95,11.02-11.02,11.02H28.24c-6.07,0-11.02-4.95-11.02-11.02V31.67c0-6.07,4.94-11.02,11.02-11.02h53.52c6.07,0,11.02,4.94,11.02,11.02v56.66ZM85.1,28.33c.88.88,1.39,2.09,1.39,3.34s-.5,2.45-1.39,3.34c-.88.88-2.09,1.39-3.34,1.39-.32,0-.63-.03-.93-.09s-.6-.16-.88-.27c-.28-.12-.57-.27-.82-.44-.25-.17-.5-.36-.71-.58-.88-.88-1.39-2.09-1.39-3.34,0-.32.03-.61.09-.93.05-.3.14-.6.27-.88.11-.28.25-.55.43-.82.17-.25.38-.5.6-.71,1.75-1.76,4.91-1.76,6.68,0h0Z"/>
</svg>