<?xml version="1.0" encoding="UTF-8"?>
<svg id="Camada_1" xmlns="http://www.w3.org/2000/svg" version="1.1" viewBox="0 0 110 135">
  <!-- Generator: Adobe Illustrator 30.0.0, SVG Export Plug-In . SVG Version: 2.1.1 Build 123)  -->
  <path d="M88.76,88.66c-.41-1.56-.7-3.84-.9-5.62v-.02c-.08-.75-.15-1.43-.2-1.9-.16-1.73-.71-2.83-1.64-3.28-1.02-.49-2.17,0-2.66.25-8.69-6.28-15.01-7.58-16.4-7.8-.54-2.15-1.88-3.79-2.49-4.45.29-.72.55-1.45.76-2.18,0,0,0-.02,0-.02.02-.05-.01-.09-.02-.14s.02-.09,0-.14v-.02c-3.4-7.11-9.09-11.87-10.25-12.79.97-4.21-2.36-8.24-3.91-9.84-2.55-6.26-6.29-8.69-6.48-8.81,0,0-.01,0-.02,0-.23-.14-3.69-2.32-7.72-3.2-.45-.63-1.11-1.29-1.63-1.79.01-.02.03-.04.04-.07.12,0,.23.03.34.03.76,0,1.42-.22,1.98-.66,1.32-1.05,1.61-3.05,1.68-3.86.2-2.45-.88-3.18-1.39-3.39-.3-.96-.81-1.63-1.27-2.16-1.82-2.12-4.3-2.65-7.19-1.54-1,.38-2.72,1.32-3.86,1.94l-.5.27c-3.35,1.8-2.59,4.8-2.45,5.29,0,.34.07,2.86,1.19,4.55.06.7.5,4.28,2.86,6.45-.12.15-.24.31-.4.5,0,0,0,0,0,0-1.07,1.36-3.17,4.24-5.21,8.34-.08.16-.04.35.09.47.03.03.8.69,2.19,1.53-1.36,1.68-2.39,4.12-2.89,5.49-.84,2.34-1.53,3.71-2.37,4.71-3.14,3.87-4.68,6.66-4.44,8.07.08.45.31.63.38.67.06.04.13.06.2.06.02,0,.05,0,.07,0,1.14-.22,3.06-2.91,4.14-4.59-.08.56-.22,1.1-.34,1.57-.22.86-.38,1.48-.11,1.89.05.09.14.14.24.16,2.1.49,3.6-3.41,4.77-7.29l.03-.11c.7-2.32,4.19-5.72,6.07-7.28.27.8.56,1.46.85,1.95,1.04,1.8,2.93,5.05,6.85,7.34-2.69.99-7.5,3.05-7.63,5.16-.03.41.13.64.28.75s.34.18.58.18c.09,0,.22-.04.32-.06.14.34.34.62.64.76.13.07.29.08.45.1-1.59,2.01-1.83,3.91-.69,5.27-1.09,1.39-2.11,3.13-2.22,4.81-.07,1.12.26,2.12,1,2.94.27.3.54.59.82.9.94,1.02,2.01,2.18,3.86,4.54.48.62.98,1.25,1.47,1.89.02.02.03.03.04.05,2.43,3.14,4.95,6.38,6.98,8.17.12.1.16.21.16.35-.03.76-1.42,2.18-4.13,4.23l-.14.11c-1.53,1.14-2.96,2.35-3,3.41-.01.35.12.66.4.9.3.27.79.4,1.45.4,1.44,0,3.63-.63,6.42-1.86.3-.05,7.49-1.27,7.11-5.94-.05-.62-.37-1.84-1.79-3.4h0s0,0,0-.01c-.15-.16-.3-.34-.48-.51-.03-1.8-.57-2.7-1.01-3.42l-.19-.32c-.87-1.53-2.23-4.79-2.97-6.59-.09-.21-.2-.42-.29-.62,0-.02,0-.04,0-.05,0-.02-.03-.02-.04-.03-.9-1.83-2.34-3.63-3.39-4.83.64.24,1.25.41,1.73.41.33,0,.62-.08.82-.26,1.28-1.13,3.85-5.75,4.75-7.4,1.15,1.68,4.74,6.45,8.39,6.54,1.05,1.79,3.62,5.57,6.82,6.21,1.19.24,2.71.54,4.41.86,5.15,1,11.54,2.23,14.55,3.11.4,1.54,2.34,8.51,4.54,9.78.25.14.51.22.76.22.12,0,.24-.02.36-.05,2.12-.6,1.28-3.79.91-5.15l-.04-.1ZM85.69,78.57c.65.31,1.06,1.23,1.2,2.64.03.29.06.64.1,1.02-1.26-1.14-2.16-2.81-2.57-3.7.39-.11.86-.17,1.27.04h0ZM82.41,83.2c-.32-.09-.64-.18-1.02-.29.34-.39.74-.9,1.14-1.52l1.01.48-1.13,1.32ZM80.51,82.71c-1.34-.32-2.94-.68-4.67-1.04l-.89-7.73c2.3,1.12,4.98,2.67,7.93,4.79-.53,1.83-1.73,3.29-2.37,3.97h0ZM75.03,81.5c-.76-.16-1.53-.31-2.32-.46-.11-2.83-.43-6.8-.57-8.34.62.25,1.27.53,1.97.85l.91,7.96ZM54.18,50.47c-.27.18-1.03.64-2.28,1.22v-.08c-.1-1.34-.39-3.19-1.59-5.8l1.82-.52c.2-.06.32-.27.28-.47-.18-.72-.38-1.4-.58-2.05,1.46,1.9,3.08,4.79,2.36,7.7h0ZM51.54,44.65l-7.41,2.11s0,0-.01,0c0,0,0,0-.02,0l-1.06.3c-.26-.7-.86-2.3-1.11-2.92-3.16-7.86,1.38-10.88,2.42-11.44.93.68,5.19,4.14,7.19,11.95h0ZM36.2,29.14c.27,1,.79,4.55-3.36,9.02-.49-.72-1.54-2.25-2.24-3.28,1.31-.57,2.5-2.22,2.7-5.59.28-.25.94-.9,1.49-1.69.41.39,1.02,1.01,1.4,1.54h0ZM25.43,18.16l.5-.27c1.12-.61,2.82-1.53,3.77-1.89,2.58-1,4.7-.55,6.3,1.31.46.54.91,1.15,1.16,2.07.04.14.16.25.31.29.05,0,1.18.26.99,2.62-.06.71-.31,2.45-1.39,3.3-.41.33-.93.49-1.53.48.05-.18.09-.35.1-.53.04-.57-.13-1.07-.5-1.49-.4-.45-1.16-.43-1.63.08-.29.31-.59.91-.59,2.02-.39-.17-.93-.53-1.3-1.29-.08-.16-.25-.25-.42-.21-.02,0-.09.01-.21.01-.66,0-2.3-.3-3.48-3.08-.07-.18-.27-.27-.45-.23l-3.79.87c-.16-.78-.3-2.75,2.15-4.06h0ZM24.58,27.14c0-.07-.03-.14-.07-.2-.88-1.24-1.06-3.18-1.1-3.93l3.52-.81c1.39,3,3.37,3.28,4.13,3.25.84,1.45,2.2,1.62,2.26,1.63.12.02.23-.03.32-.11.09-.08.13-.2.12-.32-.12-1.32.21-1.83.36-1.99.16-.17.35-.21.45-.09.23.26.32.55.3.91-.09,1.24-1.62,2.81-2.21,3.31-.08.07-.13.17-.14.28-.23,4.66-2.34,5.73-3.83,5.08-3.71-1.61-4.11-6.96-4.11-7.02h0ZM26.32,35.47c.41,2.59,1.22,7.2,2.21,10.67-1.57-.53-3.07-1.17-4.43-1.98-1.12-.64-1.87-1.21-2.22-1.49,1.66-3.29,3.34-5.74,4.43-7.21h0ZM22.26,55l-.03.11c-1.34,4.41-2.55,6.69-3.61,6.77.01-.26.13-.73.23-1.11.24-.92.54-2.07.42-3.29-.02-.18-.14-.32-.32-.35-.18-.04-.34.05-.43.21-.57,1.11-2.98,4.68-4.12,5.38-.06-.55.2-2.4,4.27-7.41.9-1.08,1.62-2.52,2.5-4.95.4-1.09,1.46-3.71,2.85-5.36,1.48.84,3.08,1.54,4.79,2.08,0,.02.01.04.02.06-1.42,1.15-5.71,5.02-6.57,7.86h0ZM30.61,49.5c-.38-.64-.75-1.59-1.11-2.84-1.19-3.82-2.14-9.58-2.52-12.05.11-.13.21-.25.29-.36.34.24.7.46,1.11.64.36.16.73.23,1.12.23.09,0,.19-.02.29-.03.92,1.34,2.68,3.91,2.68,3.91.07.1.17.16.29.17h.03c.11,0,.21-.04.28-.12,4.11-4.23,4.25-7.82,4.01-9.48,2.87.7,5.44,2.05,6.52,2.67-1.58,1.05-5.47,4.57-2.41,12.19.32.8,1.23,3.24,1.23,3.25.06.16.21.26.37.26.04,0,.07,0,.11-.02l1.01-.29c.37,1.48,1.16,2.81,1.56,3.41-4.6,3.23-6.71,5.24-7.11,5.63-.14.04-.36.12-.62.21-4.13-2.19-6.08-5.56-7.13-7.39h0ZM31.05,63.05c.91-.38,2.16-1.13,3.55-2.15.18-.13.21-.38.08-.55-.13-.17-.38-.21-.55-.08-1.48,1.09-2.86,1.91-3.69,2.2-.35.11-.49.09-.51.09,0-.02,0-.1,0-.1.1-1.54,4.57-3.6,7.88-4.75.05-.01.09-.02.13-.05.26-.09.52-.18.77-.25.06-.02.12-.05.16-.1.02-.02,2.17-2.2,7.39-5.84.09-.06.15-.16.16-.26s-.01-.21-.08-.3c-.01-.02-1.23-1.64-1.68-3.48l4.87-1.38c1.2,2.55,1.47,4.35,1.57,5.64.2,2.75-.85,3.39-1.7,3.9-4.18,2.56-8.77,4.07-8.82,4.08-.09.03-.16.09-.21.17-1.68,2.75-6.22,2.21-6.27,2.21-.11-.02-.22.02-.3.09-.6.52-1.1.87-1.51,1.04-.43.2-.77.26-.98.16-.12-.06-.2-.16-.26-.28h0ZM30.9,77.51c-.27-.3-.54-.59-.81-.89-.6-.67-.86-1.45-.8-2.36.2-3.03,3.88-6.46,4.54-7.05h.05c.86,0,3.86.26,7.21,3.52l-2.21,2.4c-.14.16-.14.4.01.55.03.03,2.87,2.84,4.38,5.7-1.2.59-2.31,1.19-3.29,1.78-1.55.95-3,1.96-3.91,2.62-.43-.56-.87-1.12-1.29-1.66-1.87-2.39-2.95-3.56-3.89-4.59h0ZM48.59,91.8c-.16.43-.45.96-1,1.49-1.07,1.04-2.84,1.65-5.21,1.88.55-.57.89-1.06,1.07-1.49,1.07-.11,3.19-.5,5.14-1.88h0ZM43.6,99.48c-5.93,2.58-7,1.73-7.13,1.62-.09-.08-.13-.16-.13-.27.03-.83,2.02-2.32,2.68-2.81l.14-.11c.93-.7,1.68-1.31,2.3-1.86,2.64-.12,4.63-.71,6.01-1.7-.07.97-.47,2.5-1.79,4.58-1.12.39-2.03.54-2.09.56h0ZM46.89,98.46c1.27-2.28,1.43-3.88,1.39-4.75.48-.5.79-1,.97-1.44.68.95.86,1.68.9,2.09.16,2.04-1.55,3.32-3.26,4.1ZM46.96,87.36c.44.73.9,1.49.9,3.19,0,.11.04.21.12.29.09.09.16.17.25.26-1.71,1.25-3.6,1.66-4.66,1.79-.04-.29-.15-.56-.39-.77-1.41-1.24-3.07-3.22-4.79-5.38l6.48-3.68c.64,1.48,1.34,3.03,1.88,3.96.07.11.14.22.21.34h0ZM44.57,82.32l-6.66,3.78c-.45-.57-.89-1.14-1.34-1.72.91-.65,2.32-1.64,3.84-2.57.95-.57,2.04-1.16,3.22-1.74.04.09.09.17.12.26.22.55.51,1.25.82,1.99h0ZM48.35,66.27c-.07-.12-.21-.19-.35-.18s-.27.09-.34.21c-.04.07-3.46,6.51-4.89,7.77-.15.13-.74.19-2.95-.8l2.11-2.28c.14-.15.14-.39,0-.54-4.3-4.35-8.29-4-8.29-4-.08,0-.16.04-.22.09-.09.07-1.1.95-2.18,2.23-1.23-1.69.52-3.92,1.45-4.9l.02-.02c.42-.2.9-.52,1.48-1,.91.08,4.97.28,6.78-2.48.8-.27,4.99-1.75,8.85-4.11,1.04-.63,2.03-1.45,2.09-3.7,1.35-.61,2.21-1.11,2.6-1.36,1.11.89,6.61,5.49,9.93,12.37-.22.75-.48,1.5-.78,2.23-1.41,3.37-3.48,5.83-5.84,6.92-.37.18-.75.27-1.16.29-3.91.17-8.26-6.67-8.3-6.74h0ZM63.42,79.23c-2.75-.55-5.12-3.91-6.11-5.52.28-.06.56-.14.83-.27,2.4-1.11,4.5-3.51,5.98-6.77.65.76,1.73,2.23,2.12,4.08.04.16.17.29.34.31.03,0,1.78.22,4.73,1.32.09,1.09.46,5.41.59,8.51-1.39-.27-2.79-.54-4.09-.8-1.68-.32-3.21-.62-4.4-.86h0ZM87.66,93.16c-.16.04-.32.01-.5-.09-1.69-.97-3.54-6.88-4.17-9.31l1.48-1.75c.08-.09.11-.22.09-.34-.03-.12-.11-.22-.21-.27l-1.41-.68c.3-.57.57-1.2.76-1.87,0,0,0,0,0,0,.5,1.06,1.7,3.27,3.42,4.49.2,1.79.49,3.97.9,5.54l.03.1c.27,1.04,1,3.8-.38,4.19h0Z"/>
  <path d="M32.72,92.67c-1.3-1.72-3.3-2.85-5.59-3-.04,0-.07-.01-.1-.01-.12,0-.24-.04-.37-.04-1.58,0-3.05.48-4.27,1.3-.05.03-.09.05-.12.09-1.68,1.18-2.83,3.02-3.12,5.14-.02.05-.02.09-.02.14-.03.29-.09.57-.09.86,0,1.52.46,2.93,1.25,4.12,1.14,1.73,2.98,2.95,5.12,3.3,0,0,0,0,0,0,.03,0,.07.02.1.02,0,0,0,0,.02,0,.37.05.73.11,1.11.11,4.19,0,7.6-3.38,7.6-7.54,0-1.66-.55-3.18-1.47-4.42-.02-.04-.03-.06-.06-.08h0ZM31.66,92.63l-1.91.09-1.79-2.18c1.46.28,2.73,1.04,3.7,2.08h0ZM29.64,101.34l-3.4.38-1.6-1.8.9-3.1,2.91-.44,2.31,2.26-1.13,2.71ZM28.3,95.61l-2.96.45-2.52-1.81.14-2.74c1.07-.69,2.33-1.09,3.7-1.09.07,0,.13.02.2.02l2.28,2.77-.84,2.41ZM22.14,92.15l-.11,2.07-1.94,1.23c.35-1.3,1.07-2.43,2.05-3.3h0ZM19.91,96.5l2.49-1.59,2.38,1.71-.9,3.09-3.01.97c-.64-1.03-1.03-2.23-1.03-3.52,0-.23.05-.44.07-.66h0ZM21.35,101.36l2.73-.88,1.56,1.76-.41,1.53c-1.57-.33-2.91-1.21-3.88-2.41h0ZM26.02,103.86l.36-1.36,3.32-.37.45.79c-1.03.62-2.22,1-3.51,1-.21,0-.41-.04-.62-.06h0ZM30.81,102.47l-.46-.8,1.16-2.79,1.81-.4c-.33,1.62-1.25,3.01-2.52,3.99h0ZM33.41,97.66l-2.05.46-2.31-2.26.81-2.35,2.43-.12c.74,1.08,1.17,2.38,1.17,3.78,0,.16-.04.32-.05.49h0Z"/>
  <path d="M78.37,92.71c-.12-.18-.36-.23-.55-.11-5.9,3.85-14.95,6.33-15.04,6.36-.21.05-.34.27-.28.48.05.18.21.29.38.29.03,0,.07,0,.1-.02.09-.02,9.26-2.54,15.27-6.45.18-.12.23-.36.11-.55h0Z"/>
  <path d="M79.9,97.47c-.12-.18-.37-.23-.55-.11-2.36,1.6-10.57,4.55-10.66,4.59-.2.07-.31.3-.24.5.06.16.21.26.37.26.04,0,.09,0,.13-.02.34-.12,8.39-3.02,10.84-4.68.18-.12.22-.37.1-.55h0Z"/>
  <path d="M87.21,98.23c-2.93,2.19-14.45,6.28-14.57,6.32-.2.07-.31.3-.24.5.06.16.21.26.38.26.04,0,.09,0,.13-.02.48-.17,11.76-4.17,14.78-6.43.18-.13.21-.38.08-.55-.13-.17-.38-.21-.55-.08h0Z"/>
  <path d="M95.71,84.74c-.05-.21-.27-.34-.48-.29l-3.58.89c-.21.05-.34.27-.29.48.05.18.21.3.38.3.03,0,.06,0,.09-.01l3.58-.89c.21-.05.34-.26.29-.47Z"/>
  <path d="M95.96,86.6l-3.2.38c-.21.02-.37.22-.34.44.02.2.2.35.39.35.02,0,.03,0,.05,0l3.2-.38c.22-.02.37-.22.34-.44-.02-.21-.23-.37-.43-.34Z"/>
</svg>