<?xml version="1.0" encoding="UTF-8"?>
<svg id="Camada_1" xmlns="http://www.w3.org/2000/svg" version="1.1" viewBox="0 0 32 40">
  <!-- Generator: Adobe Illustrator 30.0.0, SVG Export Plug-In . SVG Version: 2.1.1 Build 123)  -->
  <path d="M30,18c0-4.08-3.07-7.44-7.01-7.93,0-.02.01-.04.01-.07V3c0-.55-.45-1-1-1h-14c-.27,0-.52.11-.71.29L2.29,7.29c-.19.19-.29.44-.29.71v21c0,.55.45,1,1,1h19c.55,0,1-.45,1-1v-3s-.01-.04-.01-.07c3.95-.49,7.01-3.86,7.01-7.93ZM27.91,17h-1.84l-1.16-1.98.93-1.49s.02-.06.04-.1c1.05.9,1.79,2.15,2.03,3.57ZM19.8,23.58s.07-.08.09-.13l.72-1.45h2.58l.96,1.53s.03.03.04.05c-.68.27-1.42.42-2.19.42s-1.51-.15-2.2-.42ZM22,12c.78,0,1.52.15,2.2.42-.01.02-.03.03-.04.05l-.96,1.53h-2.39l-.96-1.53s-.03-.03-.04-.05c.68-.27,1.42-.42,2.2-.42ZM20.82,20l-1.17-2,1.17-2h2.35l1.17,2-1.17,2h-2.35ZM18.12,13.43s.02.07.04.1l.93,1.49-1.16,1.98h-1.84c.24-1.42.97-2.67,2.03-3.57ZM17.93,19l1.05,1.81-.87,1.75s0,0,0,0c-1.04-.89-1.78-2.14-2.01-3.55h1.84ZM8,4.41v3.59h-3.59l3.59-3.59ZM21,28H4V10h5c.55,0,1-.45,1-1v-5h11v6s.01.04.01.07c-2.54.31-4.71,1.82-5.94,3.95-.03,0-.05-.01-.07-.01h-2.59l-1.71-1.71c-.19-.19-.44-.29-.71-.29h-1.28c-.35-.59-.98-1-1.72-1-1.1,0-2,.9-2,2s.9,2,2,2c.74,0,1.37-.41,1.72-1h.86l1.71,1.71c.19.19.44.29.71.29h2.26c-.09.33-.15.67-.2,1.01-.02,0-.04-.01-.07-.01h-5.28c-.35-.59-.98-1-1.72-1-1.1,0-2,.9-2,2s.9,2,2,2c.74,0,1.37-.41,1.72-1h5.28s.04-.01.07-.01c.04.35.11.68.2,1.01h-2.26c-.27,0-.52.11-.71.29l-1.71,1.71h-.86c-.35-.59-.98-1-1.72-1-1.1,0-2,.9-2,2s.9,2,2,2c.74,0,1.37-.41,1.72-1h1.28c.27,0,.52-.11.71-.29l1.71-1.71h2.59s.05-.01.07-.01c1.23,2.12,3.4,3.63,5.94,3.95,0,.02-.01.04-.01.07v2ZM25.88,22.57s-.02-.07-.04-.1l-.93-1.49,1.16-1.98h1.84c-.24,1.42-.97,2.67-2.03,3.57Z"/>
</svg>