<?xml version="1.0" encoding="UTF-8"?>
<svg id="Camada_1" xmlns="http://www.w3.org/2000/svg" version="1.1" viewBox="0 0 110 135">
  <!-- Generator: Adobe Illustrator 30.0.0, SVG Export Plug-In . SVG Version: 2.1.1 Build 123)  -->
  <path d="M50.47,104.92c-2.65,0-5.29-.25-7.88-.77l-12.5-3.51h-6.11c-.52,0-.95-.42-.95-.95s.42-.95.95-.95h6.25c.09,0,.17.01.26.04l12.55,3.53c4.4.86,8.99.95,13.56.24l6.58-1.04c5.68-.91,10.97-2.98,15.72-6.14l18.57-12.36c1.15-.77,1.8-1.99,1.8-3.37,0-1.05-.39-2.03-1.09-2.76-1.36-1.44-3.54-1.69-5.18-.6l-12.17,8.04c-3.48,2.29-7.49,3.5-11.59,3.5h-20.36c-1.01,0-1.96-.39-2.69-1.12-.91-.91-1.29-2.22-1.01-3.49.39-1.71,2-2.95,3.83-2.95h5.23c5.05,0,9.36-3.6,10.26-8.56.05-.3-.08-.52-.17-.62-.16-.18-.38-.29-.62-.29h-21.34c-2.93,0-5.81.73-8.32,2.11-2.56,1.38-4.71,3.4-6.24,5.86-.17.28-.48.45-.8.45h-3.02c-.52,0-.95-.42-.95-.95s.42-.95.95-.95h2.5c1.68-2.54,3.97-4.63,6.65-6.08,2.78-1.53,5.97-2.34,9.22-2.34h21.34c.8,0,1.55.35,2.07.96.51.6.72,1.39.58,2.16-1.06,5.86-6.16,10.12-12.12,10.12h-5.23c-.96,0-1.79.62-1.98,1.47-.14.63.05,1.29.5,1.75.26.26.71.57,1.35.57h20.36c3.74,0,7.39-1.1,10.56-3.19l12.17-8.04c2.4-1.59,5.59-1.23,7.58.88,1.04,1.08,1.62,2.53,1.62,4.07,0,1.98-.99,3.83-2.64,4.94l-18.57,12.36c-4.98,3.31-10.52,5.47-16.47,6.43l-6.59,1.04c-2.14.33-4.29.5-6.42.5h0Z"/>
  <path d="M20.69,105.58h-7.77c-2.33,0-4.23-1.89-4.23-4.21v-24.84c0-2.33,1.89-4.23,4.23-4.23h7.76c2.33,0,4.23,1.89,4.23,4.23v24.84c0,2.32-1.89,4.21-4.22,4.21ZM12.92,74.18c-1.29,0-2.34,1.05-2.34,2.34v24.84c0,1.29,1.05,2.33,2.34,2.33h7.76c1.29,0,2.34-1.04,2.34-2.33v-24.84c0-1.29-1.05-2.34-2.34-2.34h-7.76Z"/>
  <path d="M20.02,97.81c0,3.07-4.6,3.07-4.6,0s4.6-3.06,4.6,0"/>
  <path d="M99.89,47.15c-2.64,13.62-15.81,22.55-29.43,19.91-2.59-.51-4.98-1.38-7.17-2.57.89.28,1.77.51,2.7.68,13.62,2.62,26.81-6.28,29.43-19.91,2.13-11-3.27-21.7-12.59-26.81,12,3.78,19.51,16.04,17.06,28.7h0Z"/>
  <path d="M75.24,68.47c-1.64,0-3.29-.16-4.96-.48-2.64-.52-5.14-1.42-7.44-2.66-.43-.23-.61-.75-.42-1.2.19-.45.69-.68,1.16-.53.86.27,1.7.49,2.58.65,13.12,2.52,25.82-6.07,28.34-19.16,2.01-10.36-2.86-20.73-12.11-25.81-.43-.23-.61-.75-.41-1.2.19-.45.69-.67,1.15-.53,12.61,3.96,20.22,16.77,17.7,29.78-2.42,12.45-13.36,21.13-25.59,21.13h0ZM73.02,66.47c12.23,1.14,23.57-7.2,25.95-19.5,1.7-8.77-1.57-17.44-7.97-22.94,4.77,5.86,6.86,13.64,5.35,21.41-2.25,11.68-12.02,20.04-23.33,21.03h0ZM99.89,47.15h.02-.02Z"/>
  <path d="M70.76,66.57c-1.63,0-3.29-.16-4.95-.47-.95-.18-1.87-.41-2.8-.71-12.7-3.95-20.37-16.78-17.83-29.85,1.32-6.83,5.22-12.74,10.98-16.64,5.77-3.9,12.72-5.32,19.56-4,2.64.52,5.17,1.42,7.52,2.68.03.02.06.04.09.05,9.96,5.48,15.19,16.65,13.03,27.81-2.41,12.44-13.36,21.12-25.6,21.12h0ZM70.7,16.31c-4.78,0-9.44,1.42-13.49,4.15-5.35,3.62-8.97,9.1-10.19,15.43-2.36,12.12,4.75,24.03,16.54,27.69.87.28,1.71.49,2.59.65,13.12,2.52,25.82-6.07,28.34-19.16,2.01-10.36-2.86-20.73-12.11-25.81h0s-.05-.04-.08-.05c-2.17-1.17-4.51-2-6.95-2.47-1.55-.3-3.11-.45-4.65-.45h0Z"/>
  <path d="M73.68,50.67c-.18,0-.37-.02-.56-.05l-8.32-1.61c-1.28-.25-2.23-1.27-2.39-2.55l-1.03-8.42c-.16-1.26.52-2.48,1.67-3.04l7.7-3.59c1.16-.55,2.54-.29,3.41.66l5.8,6.2c.88.95,1.04,2.33.42,3.45l-4.1,7.43c-.51.95-1.53,1.53-2.6,1.53h0ZM72,33.02c-.15,0-.3.03-.45.1l-7.69,3.59c-.41.2-.66.64-.61,1.11l1.03,8.42c.05.46.41.84.87.92l8.32,1.61c.46.1.93-.13,1.15-.53l4.1-7.43c.23-.41.17-.91-.15-1.25l-5.79-6.19c-.21-.22-.5-.34-.79-.34h0Z"/>
  <path d="M55.76,29.27c-.36,0-.7-.2-.86-.54-.22-.47-.02-1.04.46-1.25l15.28-7.13c.47-.22,1.04-.02,1.25.46.22.47.02,1.03-.46,1.25l-15.28,7.13c-.13.06-.26.09-.4.09h0Z"/>
  <path d="M74.24,62.85c-.06,0-.12,0-.18-.02l-14.68-2.85c-.51-.1-.84-.59-.75-1.11.1-.51.6-.84,1.11-.75l14.68,2.85c.51.1.84.59.75,1.11-.09.45-.48.76-.92.76h0Z"/>
  <path d="M83.8,57.6c-.16,0-.31-.04-.46-.12-.46-.25-.62-.82-.37-1.28l7.57-13.73c.25-.46.83-.62,1.28-.37.46.25.62.82.37,1.28l-7.57,13.73c-.17.31-.49.49-.82.49h0Z"/>
  <path d="M52.63,51.57c-.47,0-.88-.35-.93-.83l-1.89-15.55c0-.52.42-1.01.94-1.01s.94.36.94.88l1.88,15.45c.06.52-.3.99-.82,1.05-.04,0-.08,0-.12,0h0Z"/>
  <path d="M89.22,35.74c-.25,0-.5-.1-.69-.3l-11.52-12.32c-.36-.38-.34-.98.04-1.34.38-.36.98-.33,1.34.04l11.51,12.32c.36.38.34.98-.04,1.34-.18.17-.42.26-.64.26h0Z"/>
  <path d="M72.39,33.05c-.06,0-.12,0-.18-.02-.51-.1-.85-.59-.75-1.11l1.61-8.33c.1-.52.6-.84,1.11-.75.51.1.85.59.75,1.11l-1.61,8.33c-.09.45-.48.77-.93.77h0Z"/>
  <path d="M62.52,37.74c-.18,0-.36-.05-.53-.16l-6.68-4.5c-.43-.29-.55-.88-.26-1.31.29-.43.88-.55,1.31-.26l6.68,4.5c.43.29.55.88.26,1.31-.18.27-.48.42-.78.42h0Z"/>
  <path d="M58.42,53.2c-.26,0-.52-.11-.7-.31-.35-.39-.32-.98.07-1.33l5.4-4.85c.39-.35.98-.32,1.33.07.35.39.32.98-.07,1.33l-5.4,4.85c-.18.16-.4.24-.63.24h0Z"/>
  <path d="M77.82,56.95c-.35,0-.68-.2-.85-.53l-3.21-6.51c-.23-.46-.04-1.03.43-1.26.46-.23,1.03-.04,1.26.43l3.21,6.51c.23.46.04,1.03-.43,1.26-.13.07-.27.1-.41.1h0Z"/>
  <path d="M79.87,41.09c-.45,0-.85-.32-.93-.79-.09-.51.26-1,.77-1.09l7.9-1.34c.49-.09,1,.26,1.09.77.09.51-.26,1-.77,1.09l-7.9,1.34c-.05,0-.11.01-.16.01h0Z"/>
  <path d="M74.38,24.76c-.8,0-1.59-.33-2.16-.95l-5.8-6.2c-.48-.52-.75-1.16-.78-1.84-.03-.48.31-.9.78-.98,3.06-.52,6.18-.49,9.29.11,3.1.6,6.02,1.73,8.66,3.36.41.25.56.77.36,1.21-.29.6-.78,1.1-1.39,1.4l-7.71,3.6c-.4.19-.83.29-1.25.29h0ZM67.94,16.48l5.66,6.05c.31.34.82.43,1.23.24l7.51-3.5c-2.17-1.18-4.51-2.03-6.98-2.51-2.47-.48-4.96-.57-7.41-.28h0Z"/>
  <path d="M46.42,37.82c-.25,0-.5-.03-.75-.1-.46-.12-.75-.57-.69-1.04.05-.38.11-.77.19-1.14,1.14-5.86,4.13-11,8.66-14.86.37-.32.92-.3,1.27.04.48.46.8,1.09.9,1.74l1.03,8.45c.17,1.27-.5,2.49-1.67,3.04h0l-7.69,3.6c-.4.18-.82.27-1.24.27h0ZM54.15,22.93c-3.66,3.44-6.11,7.84-7.1,12.82l7.5-3.51c.42-.2.66-.64.61-1.1l-1-8.22ZM54.95,33.1h.02-.02Z"/>
  <path d="M59.59,63.94c-.14,0-.29-.03-.42-.1-5.63-2.79-10.06-7.53-12.48-13.35-.18-.44,0-.95.41-1.18.58-.32,1.27-.43,1.95-.32l8.36,1.62c1.27.25,2.22,1.27,2.38,2.54l1.04,8.43c.08.68-.07,1.38-.44,1.95-.18.27-.49.43-.8.43h0ZM48.92,50.88c2.15,4.52,5.64,8.27,10,10.7l-1.01-8.21c-.05-.46-.41-.84-.86-.92l-8.12-1.57Z"/>
  <path d="M72.75,66.48c-.45,0-.84-.32-.93-.76-.13-.66-.02-1.36.31-1.97l4.11-7.43c.61-1.11,1.91-1.71,3.15-1.47l8.33,1.61c.69.13,1.3.5,1.73,1.05.29.37.26.9-.07,1.24-4.41,4.5-10.29,7.25-16.56,7.73h-.08,0ZM78.83,56.68c-.39,0-.75.21-.95.55l-4,7.24c4.95-.64,9.59-2.8,13.27-6.2l-8.12-1.57c-.06-.02-.13-.02-.2-.02h0Z"/>
  <path d="M95.18,47.29s-.07,0-.11,0c-.65-.07-1.28-.39-1.76-.88l-5.81-6.23c-.88-.92-1.05-2.34-.42-3.45l4.09-7.42c.36-.63.9-1.09,1.53-1.32.44-.16.94.03,1.16.45,2.77,5.27,3.63,11.15,2.5,17.02-.07.38-.16.76-.26,1.14-.11.42-.49.71-.91.71h0ZM95.43,45.27h.02-.02ZM92.73,30.39l-4,7.25c-.23.4-.17.91.14,1.23l5.66,6.06c.93-4.99.31-9.99-1.8-14.55h0Z"/>
</svg>