<?xml version="1.0" encoding="UTF-8"?>
<svg id="Camada_1" xmlns="http://www.w3.org/2000/svg" version="1.1" viewBox="0 0 110 135">
  <!-- Generator: Adobe Illustrator 30.0.0, SVG Export Plug-In . SVG Version: 2.1.1 Build 123)  -->
  <path d="M38.88,91.89l-1.83-3.17c-.06-.11-.16-.2-.27-.27l-.77-.47c-.12-.08-.27-.11-.41-.11h-3.67c-.12,0-.25.03-.36.09l-.8.41c-.12.06-.23.17-.31.3l-1.86,3.23c-.06.11-.11.25-.11.39v.89c0,.14.03.27.11.39l1.83,3.19c.06.11.16.2.27.27l.77.47c.12.08.25.11.39.11h3.8c.16,0,.31-.05.44-.14l.73-.52c.09-.06.17-.14.23-.25l1.81-3.14c.06-.12.09-.25.09-.39v-.89c0-.12-.05-.27-.11-.38l.02-.02Z"/>
  <path d="M33.75,77.44c-8.44,0-15.3,6.86-15.3,15.3s6.86,15.3,15.3,15.3,15.3-6.86,15.3-15.3-6.86-15.3-15.3-15.3ZM43.44,100.2l-.44-.75c-.28-.48-.81-.8-1.38-.8h-3.17c-.28,0-.55.08-.78.22l-.44.25c-.23.14-.44.34-.58.58l-1.59,2.75c-.28.48-.28,1.09,0,1.58l.47.81c-1.17.17-2.39.17-3.56,0l.47-.81c.28-.48.28-1.09,0-1.58l-1.59-2.75c-.14-.25-.34-.44-.58-.58l-.44-.25c-.23-.14-.52-.22-.78-.22h-3.17c-.56,0-1.09.3-1.38.8l-.44.75c-.69-.89-1.23-1.84-1.64-2.88h.92c.56,0,1.09-.31,1.36-.81l1.58-2.75c.14-.23.2-.52.2-.8v-.52c0-.28-.08-.56-.22-.78l-1.59-2.73c-.28-.48-.81-.78-1.38-.78h-.88c.42-1.03.97-2,1.66-2.88l.44.75c.28.48.81.8,1.38.8h3.22c.33,0,.64-.09.91-.28l.42-.3c.19-.12.36-.31.47-.52l1.56-2.72c.28-.48.28-1.09,0-1.58l-.47-.81c1.16-.17,2.39-.17,3.56,0l-.47.81c-.28.48-.28,1.09,0,1.58l1.56,2.72c.12.2.28.38.47.5l.42.3c.27.19.58.28.91.28h3.22c.56,0,1.09-.3,1.38-.8l.44-.75c.69.89,1.25,1.86,1.66,2.91h-.95c-.55,0-1.08.31-1.34.78l-1.59,2.7c-.14.23-.22.52-.22.81v.5c0,.28.08.56.22.8l1.64,2.81c.28.48.81.78,1.38.78h.86c-.42,1.02-.97,1.97-1.64,2.84h-.05Z"/>
  <path d="M101.02,11.97H8.99c-1.33,0-2.42,1.08-2.42,2.42v62.36h7.25V20.39h82.38v56.36h7.25V14.39c0-1.33-1.09-2.42-2.42-2.42h0Z"/>
  <path d="M17.33,76.7c1.48-1.23,3.02-2.28,4.55-3.08l3.23-1.41c2.77-.97,5.78-1.39,8.92-1.28h41.98c3.12-.11,6.12.31,8.88,1.27l3.23,1.39c1.55.81,3.08,1.86,4.56,3.09l.05.05h.34v-4.83c-1.5-1.08-3.05-2-4.66-2.75v-10.94c1.61-.75,3.17-1.67,4.66-2.75v-5.12c-1.47,1.28-3.03,2.38-4.66,3.25v-7.86c1.64-1.14,3.2-2.48,4.66-4v-5.94c-1.41,1.86-2.97,3.52-4.66,4.92v-8.3c1.73-1.84,3.3-3.94,4.66-6.25v-2.66h-2.77c-1,1.73-2.14,3.33-3.38,4.77h-6.62c1.14-1.48,2.17-3.09,3.16-4.77h-4.55c-1.19,1.73-2.47,3.33-3.84,4.77h-7.86c.97-1.61,1.77-3.2,2.38-4.77h-4.09c-.75,1.56-1.72,3.16-2.86,4.77h-13.41c-1.16-1.62-2.11-3.22-2.86-4.77h-4.09c.62,1.56,1.42,3.17,2.38,4.77h-7.89c-1.38-1.44-2.66-3.05-3.84-4.77h-4.55c.98,1.67,2.02,3.3,3.16,4.77h-8.33c-1.25-1.44-2.38-3.05-3.38-4.77h-2.86v2.5c1.36,2.33,2.92,4.45,4.66,6.31v8.45c-1.7-1.41-3.27-3.05-4.66-4.91v5.84c1.45,1.52,3.02,2.86,4.66,4v7.88c-1.64-.89-3.19-1.98-4.66-3.27v5.14c1.48,1.08,3.05,2,4.66,2.77v10.92c-1.61.75-3.17,1.67-4.66,2.77v4.81h.34l.05-.05-.03.02ZM47.86,66.75h-10.39v-6.14h10.39v6.14ZM47.86,56.36h-10.39v-5.7h10.39v5.7ZM47.86,46.41h-10.39v-5.7h10.39v5.7ZM72.56,66.75h-8.62v-6.14h8.62v6.14ZM72.56,56.36h-8.62v-5.7h8.62v5.7ZM72.56,46.41h-8.62v-5.7h8.62v5.7ZM84.76,67.78c-2.45-.73-5.06-1.11-7.77-1.11h-.81v-5.98c.27,0,.53.03.8.03,2.67,0,5.28-.38,7.78-1.12v8.19ZM84.76,55.19c-2.67.92-5.56,1.33-8.58,1.23v-5.97c3.02-.39,5.91-1.27,8.58-2.58v7.31ZM84.76,43.25c-2.59,1.48-5.47,2.47-8.58,2.92v-5.97c3.12-1.03,6-2.55,8.58-4.52v7.56ZM76.51,32.53h5.83c-.39.31-.75.59-1.09.88-1.7,1.38-2.92,2.36-5.31,3.05h-4.27c1.69-1.12,3.31-2.45,4.84-3.92ZM64.3,32.53h5.84c-2.56,1.78-5.33,3.09-8.2,3.92h-.97c1.19-1.27,2.31-2.59,3.33-3.92h0ZM59.2,32.53c-1.33,1.47-2.48,2.62-3.3,3.36-.81-.75-1.98-1.91-3.28-3.36h6.58ZM51.5,40.7h8.8v5.7h-8.8v-5.7ZM51.5,50.65h8.8v5.7h-8.8v-5.7ZM51.5,60.61h8.8v6.14h-8.8v-6.14ZM47.53,32.53c1.03,1.33,2.16,2.66,3.34,3.92h-.91c-2.94-.81-5.72-2.14-8.3-3.92h5.88-.02ZM35.28,32.53c1.52,1.47,3.16,2.78,4.84,3.92h-4.22c-2.95-.83-5.69-2.16-8.12-3.92h7.5ZM25.25,35.61c2.58,1.98,5.47,3.53,8.61,4.56v6c-3.11-.45-6.02-1.42-8.61-2.89v-7.67ZM25.25,47.84c2.67,1.31,5.56,2.19,8.61,2.59v5.97c-3.06.09-5.94-.33-8.61-1.23v-7.33ZM25.25,59.61c2.48.73,5.06,1.11,7.7,1.11.3,0,.59,0,.89-.03v5.98c-3.02-.08-5.92.3-8.61,1.09v-8.17l.02.02Z"/>
</svg>