<svg xmlns="http://www.w3.org/2000/svg" xmlns:xlink="http://www.w3.org/1999/xlink" version="1.1" viewBox="-1640 -1287 4000 5000" x="0px" y="0px"><g><g><g><g style="" fill="rgb(0,0,0)" fill-opacity="1.0" stroke-linejoin=" miter"><path d="M872.332,80.94236L867.5658,118.95976L867.56573,118.96076Q867.56036,118.96807,867.555,118.97638L867.2518,121.46458L867.2517,121.465576Q867.24475,121.48551,867.2378,121.50644L846.10645,290.12918Q840.03546,334.307,826.2513,390.1345L826.2513,390.1355Q826.2368,390.1763,826.2224,390.2181Q825.6805,392.4457,825.11804,394.69186Q794.9961,505.9035,746.8754,584.31305Q746.86084,584.3429,746.84625,584.37274L746.8388,584.3737Q743.0903,590.4789,739.2326,596.386Q685.80817,680.282,603.3093,768.45276L284.2831,1092.9497Q239.1491,1139.9916,199.08914,1185.9739Q196.6773,1188.6595,194.25977,1191.3981Q173.70538,1214.6815,152.7396,1241.7816L152.74112,1241.7826Q107.79051,1299.8822,60.950455,1375.5258Q50.688892,1381.7632,50.535732,1462.2799L50.53607,1462.2809Q50.53565,1462.2799,50.53523,1462.28Q50.51953,1470.7975,50.616447,1480.1461L50.616444,1480.1471Q50.8035,1498.189,51.41185,1519.3268Q51.856037,1574.6875,54.94707,1612.7006L54.947563,1612.7015Q54.947044,1612.7006,54.94653,1612.7007Q56.4393,1631.0519,58.548397,1645.3601Q64.84845,1646.48,70.986984,1647.5511Q74.543526,1631.966,78.5989,1609.9623L78.59752,1609.9633Q87.33125,1562.5822,98.37613,1485.4456Q100.409706,1471.2432,102.52168,1456.0321L102.519775,1456.0331Q105.86494,1431.953,109.40449,1405.3472L189.46217,1312.1543L250.65015,1247.8783L547.23425,974.5298Q547.23425,974.5297,547.23425,974.5297L547.2343,974.5307L551.43243,970.6605Q585.10626,939.06714,663.18317,848.46594Q723.56866,777.36774,766.79596,711.1247L780.7716,679.27344L766.79785,711.1217Q825.97076,620.4423,852.9914,538.86096Q886.5139,442.25903,892.46423,333.5405Q898.6621,203.77353,872.332,80.94236 Z"/></g><g style="" fill="rgb(0,0,0)" fill-opacity="1.0" stroke-linejoin=" miter"><path d="M145.41255,1334.8234L145.73009,1334.3269Q178.62538,1276.6217,193.40285,1196.3696Q198.7856,1168.0039,196.44176,1118.6294Q193.55968,1081.1318,185.77174,1050.2614Q169.23286,984.21704,129.33827,901.34143Q106.41344,852.90564,40.701675,727.2435L-19.656677,619.44995L-37.039017,585.6207Q-64.03623,531.8109,-79.63267,485.59235Q-100.86504,428.4456,-115.846344,338.8008Q-120.21802,311.9251,-125.19386,266.32306L-139.55795,110.63202Q-140.82741,93.861984,-140.09921,83.07653Q-140.11205,87.07495,-142.20782,100.45335Q-155.83047,168.08145,-159.5997,199.86072Q-165.96515,245.85132,-167.36836,304.16867Q-169.77773,393.14374,-149.04016,489.8323Q-125.351036,592.70953,-72.90984,699.60095L-39.516373,764.8015Q63.9944,931.91345,86.02583,972.46265Q121.803635,1038.5032,131.53477,1069.4904Q150.2546,1120.014,153.94087,1176.7626Q155.70311,1218.2327,152.71635,1241.9795L142.28719,1329.1388Q142.02339,1331.7341,145.41255,1334.8234"/></g><g style="" fill="rgb(0,0,0)" fill-opacity="1.0" stroke-linejoin=" miter"><path d="M876.9914,234.08986L876.9914,234.09087Q849.1639,323.7611,826.2224,390.2181L826.22235,390.21912Q796.92755,475.0793,775.5997,522.0883Q767.59204,542.0023,746.94916,584.19293L746.94916,584.1939Q746.93066,584.223,746.91223,584.2531Q735.6257,607.33484,720.5528,637.07886Q577.4393,901.2517,566.4594,928.939Q556.45374,950.63715,547.2343,974.5298L547.2343,974.53076L547.2258,974.5376Q528.1712,1023.9342,512.4719,1082.7104Q500.73618,1129.7397,499.9076,1179.4819Q500.49622,1219.9724,508.55115,1248.7734Q524.11725,1324.798,618.2636,1413.0634Q620.22736,1436.1438,622.2566,1457.351Q623.8512,1474.0161,625.4863,1489.5247L625.4859,1489.5256Q625.48303,1489.525,625.48016,1489.5254Q634.0503,1570.7505,643.72424,1620.2438Q643.73083,1620.2445,643.7374,1620.2451L643.731,1620.2461Q646.74384,1635.6921,649.8711,1648.0474Q655.68677,1647.4832,662.7224,1646.6696Q664.02386,1635.326,665.1584,1622.5779Q668.1532,1588.9261,670.03076,1545.4865Q671.3171,1510.1526,672.06537,1483.4049L672.05865,1483.4059Q672.3122,1474.5819,672.5004,1466.6932Q671.9507,1466.5876,671.40204,1466.4823L671.40875,1466.4833Q671.95404,1466.5869,672.5004,1466.6919Q674.06647,1401.072,671.5813,1400.095Q670.12915,1389.2692,666.5058,1383.188Q598.7337,1295.0642,593.80023,1270.2988Q580.4613,1230.2893,581.0821,1214.4348Q579.4946,1186.1777,583.25793,1162.843Q584.673,1138.3555,612.85657,1062.176L766.80426,711.1237L766.7966,711.1247L780.7716,679.27344Q803.68365,626.64453,829.03,548.63226Q878.9114,392.15097,877.0002,234.08986 Z"/></g><g style="" fill="rgb(0,0,0)" fill-opacity="1.0" stroke-linejoin=" miter"><path d="M195.5998,407.16824Q197.04727,424.54575,199.00723,442.48895Q199.13472,445.62766,202.27982,467.17056Q204.31494,481.11063,207.61359,502.75684L231.58887,631.39307Q239.82578,686.8653,240.40291,706.2011Q242.20293,739.0996,240.79407,759.431L239.29393,772.9228Q239.32736,791.9408,237.30544,807.95636Q237.52327,811.5788,232.84514,837.0894Q221.22537,892.59064,184.04915,955.5731Q178.84738,965.93524,165.65913,986.0659Q150.04138,1009.90497,123.223625,1047.4431Q128.5803,1060.0823,131.53477,1069.4904Q135.49667,1080.1832,138.78517,1091.155Q162.51361,1068.165,184.19965,1044.1525Q184.19954,1044.1521,184.19942,1044.1516L184.20126,1044.1526Q210.50562,1015.0242,233.805,984.39307Q301.46747,891.5341,313.16245,806.9595Q322.92505,743.53436,300.2709,647.5963Q293.5942,620.29443,284.98816,591.25916L249.7851,480.7846Q249.78377,480.78433,249.78244,480.78406L249.78491,480.78506L244.58708,464.47217L233.65881,428.1361Q213.84822,418.7451,195.60176,407.16824 Z"/></g><g style="" fill="rgb(0,0,0)" fill-opacity="1.0" stroke-linejoin=" miter"><path d="M355.62204,-315.8916Q299.0798,-315.8916,240.73837,-299.41495Q164.88672,-277.44757,90.27085,-216.60727Q11.095505,-141.12555,-12.763618,-81.879776Q-53.972713,5.6954346,-52.84433,95.50836Q-56.031578,174.75037,-12.098572,272.37955Q-7.7619405,282.07986,-2.4545367,291.76813L-2.454536,291.76913Q28.069405,347.4872,90.70284,402.8076Q166.76022,463.5919,249.78456,480.784L244.58708,464.47217L243.40434,460.53964Q247.94742,457.9794,252.47612,455.0936Q260.88156,449.34128,269.07715,442.96063Q267.82837,442.41306,266.61926,441.8552Q221.37953,425.47885,183.35754,399.031Q183.35547,399.03186,183.35338,399.0327L183.35158,399.03372Q157.90602,381.32706,135.68903,359.1107Q36.78195,259.1213,35.50846,117.49161Q38.99494,25.353241,74.65892,-34.573364Q102.36239,-82.49234,121.71955,-100.48552Q154.57047,-133.01009,164.95749,-139.54608Q253.49692,-203.8519,359.35226,-203.8519Q413.97003,-203.8519,473.19766,-186.73233Q511.20834,-175.88113,571.2995,-130.50108Q609.83356,-97.46506,632.6662,-62.8918Q656.17676,-25.197113,657.83435,-18.03241Q672.0265,10.893219,680.7134,49.114594Q692.02203,97.09329,688.51324,146.14117Q686.94147,190.73969,661.17584,257.4208Q661.1058,257.57486,661.0357,257.7287Q648.38605,285.50317,635.2593,307.08127Q662.1249,315.534,679.5174,339.7136Q695.32367,319.01813,708.2643,297.82846Q708.2623,297.82584,708.2604,297.82324L708.26746,297.82425Q808.451,133.7721,736.8724,-59.903625Q639.94727,-271.219,420.31268,-310.3992Q388.2672,-315.8916,355.62204,-315.8916 Z"/></g><g style="" fill="rgb(0,0,0)" fill-opacity="1.0" stroke-linejoin=" miter"><path d="M-139.21928,81.58765L-139.20384,82.022514Q-129.50264,188.60803,-63.004036,299.77963Q0.06021118,400.78537,87.53337,455.62323Q172.61842,505.98126,252.47612,455.0936Q312.25537,414.1833,361.42126,341.49124Q386.45972,306.17883,405.2431,275.61087Q407.00873,267.94037,389.19366,266.4745Q337.93866,263.59213,340.20117,274.0523Q390.01605,349.83304,435.83508,405.02856Q480.4776,457.1495,517.5061,480.06583Q551.4598,502.24738,593.03107,504.43192Q669.0236,507.6121,735.3491,415.30658Q775.0441,357.32513,807.72565,281.4153Q834.03015,221.93776,868.62213,117.32831Q714.61163,355.20312,701.56586,364.03445Q644.5995,433.25067,604.1573,432.0476Q574.91315,432.93378,537.1381,393.36685Q498.25555,353.62408,424.26733,228.53612Q397.4674,203.10934,379.36542,199.80296Q348.3526,198.81644,325.42328,220.69843Q254.16298,348.6363,206.3492,386.07983Q180.8557,403.35678,167.71562,402.35165Q154.43413,405.1707,120.29323,390.84686Q61.48143,365.13046,-16.28328,276.30804Q-46.776863,240.03926,-68.62784,204.84741Q-92.2374,167.41814,-133.01637,84.98456Q-134.14139,81.47082,-139.21928,81.58765"/></g><g style="" fill="rgb(0,0,0)" fill-opacity="1.0" stroke-linejoin=" miter"><path d="M601.2711,242.88739Q572.6997,243.98119,572.5208,245.30763Q542.6561,253.65384,518.5285,275.01114Q495.22824,296.9285,483.9212,324.09827Q473.94217,348.077,473.30466,376.1468Q473.9729,411.16833,484.94858,432.60834Q496.29602,459.8362,522.65625,481.6391Q528.6943,486.11435,534.6672,489.76913Q556.7808,503.30026,578.00226,505.58517Q586.05884,506.5234,593.1694,506.5234Q603.00824,506.5234,611.0359,504.72705Q615.7291,503.73117,619.3259,502.62415L619.31976,502.62515Q611.271,504.08762,603.11255,504.43192L603.1122,504.43292Q611.2773,504.08728,619.32886,502.62137Q620.75745,502.18338,622.00824,501.728Q623.60547,501.26312,624.4553,497.0914L624.0846,497.02582Q595.8344,496.2994,571.1118,481.98846Q556.2613,473.38165,544.9652,460.46335Q534.52936,448.4265,529.97095,438.18506Q524.8087,428.22253,521.4995,412.53052Q519.5507,401.89972,519.75323,391.40976L520.943,377.65097Q521.1143,376.571,521.3259,375.4729Q521.3238,375.4703,521.3217,375.4677L521.3269,375.46872Q523.24994,365.492,528.4976,354.01596L533.6876,344.32193Q539.0322,335.67004,545.1928,329.7942Q563.39014,312.75113,581.11646,308.78363Q593.4078,306.68292,594.8371,305.0559L603.0371,303.7218Q607.5113,303.2709,611.74207,303.2709Q618.4308,303.2709,624.5111,304.3979Q630.0629,305.44434,635.2603,307.0796L635.2603,307.0806Q635.25977,307.08044,635.2593,307.08127Q662.1249,315.53397,679.5174,339.7136Q685.5032,348.03513,690.3676,358.21936Q693.3484,365.92258,695.04803,371.7863L695.0481,371.7873Q695.0455,371.78934,695.04285,371.79236Q696.8094,377.8643,697.19476,381.96307Q698.0232,384.15802,698.774,399.62466Q699.1085,422.32617,687.4741,446.74744Q681.615,458.5735,674.149,467.42212Q673.4175,469.04077,662.1115,479.93695Q647.7054,492.1039,636.6119,496.4908L646.9775,494.13428Q686.604,476.90533,723.33545,431.14413Q725.5806,426.18475,727.6659,420.67075Q734.9234,400.31042,734.92377,378.8332Q734.5012,353.52805,726.61304,331.73193L726.6058,331.73294Q720.03577,313.55832,708.26825,297.82425L708.26117,297.82526Q705.33057,293.89676,702.07336,290.12512Q688.0404,273.56412,668.66925,261.83884Q664.9042,259.67105,661.04236,257.7287L661.0357,257.7297Q651.8944,253.12769,642.2035,249.7917Q637.4192,247.81679,622.0797,244.75862Q609.50653,242.91655,601.2711,242.88739 Z"/></g><g style="" fill="rgb(0,0,0)" fill-opacity="1.0" stroke-linejoin=" miter"><path d="M440.89554,1434.4252Q354.84796,1434.4252,221.80391,1443.9531Q191.07906,1446.2736,163.65881,1448.9976Q136.2386,1451.7216,114.66577,1454.7631L102.520676,1456.032Q102.52062,1456.0323,102.52057,1456.0327L102.51954,1456.0337L87.323105,1457.6198Q73.39176,1458.9633,50.53523,1462.28Q50.51953,1470.7975,50.616447,1480.1461Q72.37968,1482.8396,98.37613,1485.4456Q152.23328,1490.8442,224.25792,1495.8634Q293.36697,1500.7466,351.62424,1503.2241Q380.15884,1504.3569,406.06738,1504.5836L431.67957,1504.5754Q456.81546,1504.3367,481.4863,1503.1421L506.40118,1501.7003Q531.37994,1500.0154,558.055,1497.3247Q582.4793,1495.0015,625.4858,1489.5247Q625.4858,1489.5247,625.4858,1489.5245L625.4863,1489.5255Q646.5419,1486.8431,672.0515,1483.4059Q672.3122,1474.5819,672.5004,1466.6932Q672.3602,1466.6663,672.22015,1466.6394Q645.99335,1461.6025,622.26935,1457.352L622.2631,1457.353Q622.49915,1459.8289,622.7362,1462.28L622.73157,1462.281Q622.4937,1459.8287,622.2567,1457.3519Q499.79633,1435.4102,444.20053,1434.4287Q442.5568,1434.4252,440.89554,1434.4252 Z"/></g><g style="" fill="rgb(0,0,0)" fill-opacity="1.0" stroke-linejoin=" miter"><path d="M270.33496,1597.5127Q242.90057,1597.6298,215.96863,1598.7489L188.76938,1600.1259Q161.49915,1601.757,132.3728,1604.4342Q111.626785,1606.2257,78.59816,1609.962Q78.59814,1609.9622,78.59812,1609.9623L78.597336,1609.9633Q67.46864,1611.2211,54.94653,1612.7007Q56.439297,1631.0518,58.548378,1645.36Q64.84816,1646.48,70.986984,1647.5511L70.986984,1647.5521Q70.98688,1647.5516,70.98676,1647.5521Q197.69417,1669.6593,256.3302,1670.9231Q262.31943,1670.9636,268.52194,1670.9636Q360.40808,1670.9636,499.10223,1662.0767Q532.6471,1659.7997,562.58685,1657.0793Q592.5268,1654.359,616.0863,1651.2709L645.9423,1648.411Q647.82776,1648.2446,649.863,1648.0474Q649.86755,1648.0474,649.8702,1648.0474Q649.8728,1648.0474,649.8734,1648.0474L649.8711,1648.0483Q655.68695,1647.4832,662.7224,1646.6696Q664.02386,1635.326,665.1584,1622.5779Q654.82513,1621.4043,643.7371,1620.2435L643.73065,1620.2445Q643.7309,1620.2448,643.7312,1620.2461L643.731,1620.2471Q581.85284,1613.7651,496.67505,1607.6859Q421.2721,1602.229,357.70172,1599.3429Q326.56412,1598.0118,298.28848,1597.6389L270.33496,1597.5127 Z"/></g></g><g style="" fill="rgb(0,0,0)" fill-opacity="1.0" stroke-linejoin=" miter"><path d="M362.0276,-588.8606L362.02734,-588.8596L362.06644,-588.8595L362.1745,-588.8594L362.33774,-588.8593Q362.5286,-588.8592,362.7746,-588.85913L363.70352,-588.8588Q363.89435,-588.85876,363.97482,-588.8587L364.01392,-588.85864L364.01392,-588.85803Q363.98718,-588.8582,364.0858,-588.85846Q364.2252,-588.8587,364.30826,-588.85876Q364.41748,-588.8589,364.5888,-588.85895L364.77908,-588.8591L365.00732,-588.85913Q365.25452,-588.85925,365.42584,-588.8594Q365.54858,-588.85944,365.80356,-588.8596L365.87656,-588.85974Q365.9375,-588.8598,365.96393,-588.8599Q366.00992,-588.8601,366.00073,-588.86035Q365.92694,-588.8606,362.0276,-588.8606"/></g></g></g><text x="-1640" y="2728" fill="#000000" font-size="5px" font-weight="bold" font-family="'Helvetica Neue', Helvetica, Arial-Unicode, Arial, Sans-serif">Created by M Syaiful Anshari</text><text x="-1640" y="2733" fill="#000000" font-size="5px" font-weight="bold" font-family="'Helvetica Neue', Helvetica, Arial-Unicode, Arial, Sans-serif">from the Noun Project</text></svg>