<?xml version="1.0" encoding="UTF-8"?>
<svg id="Camada_1" xmlns="http://www.w3.org/2000/svg" version="1.1" viewBox="0 0 110 135">
  <!-- Generator: Adobe Illustrator 30.0.0, SVG Export Plug-In . SVG Version: 2.1.1 Build 123)  -->
  <defs>
    <style>
      .st0 {
        fill: #d4ad05;
        fill-rule: evenodd;
      }
    </style>
  </defs>
  <path class="st0" d="M55,14.41c19.73,0,35.72,15.99,35.72,35.72,0,22.07-18.36,31.18-18.42,31.26l-2.37,7.44h7.59c.32,0,.62.09.88.23l8.38,4.45c.59.31.93.92.93,1.55v8.77c0,.97-.79,1.75-1.75,1.75H24.05c-.97,0-1.75-.79-1.75-1.75v-8.77c0-.69.4-1.29.99-1.58,1.41-.72,8.25-4.65,9.2-4.65h7.59l-2.37-7.44c-.06-.07-18.42-9.18-18.42-31.26,0-19.73,15.98-35.72,35.72-35.72h0ZM41.55,102.08c0-2.38-.55-5.37,1.75-5.37h23.4c2.3,0,1.75,2.98,1.75,5.37h15.75v-5.96l-7.11-3.77h-44.18l-7.11,3.77v5.96h15.75ZM64.94,102.08v-1.86h-19.89v1.86h19.89ZM67.99,83.42c-8.32,3.25-17.66,3.25-25.99,0l1.72,5.41h22.54l1.73-5.41ZM30.6,64.22l-6.04-3.48c1.35,3.87,3.41,7.41,6.04,10.45v-6.96ZM23.31,55.97l9.04,5.22,9.57-5.53v-11.06s-9.57-5.53-9.57-5.53l-9.04,5.22c-.71,3.84-.71,7.83,0,11.67ZM24.57,39.55l6.04-3.48v-6.96c-2.62,3.04-4.69,6.58-6.04,10.45h0ZM79.4,36.06l6.04,3.48c-1.35-3.87-3.41-7.41-6.04-10.45v6.96ZM86.69,44.3l-9.04-5.22-9.57,5.53v11.06l9.57,5.53,9.04-5.22c.7-3.85.7-7.83,0-11.68ZM85.43,60.73l-6.04,3.48v6.96c2.62-3.04,4.69-6.58,6.04-10.45h0ZM43.68,58.69l-9.57,5.53v10.44c2.95,2.52,6.37,4.51,10.1,5.84l9.04-5.22v-11.07l-9.57-5.52ZM55,78.3l-6.04,3.49c3.98.75,8.11.75,12.09,0l-6.04-3.49ZM75.89,74.66v-10.44l-9.57-5.53-9.57,5.52v11.07l9.04,5.22c3.73-1.32,7.14-3.32,10.1-5.84h0ZM53.24,24.99l-9.04-5.22c-3.73,1.32-7.14,3.32-10.1,5.84v10.44l9.57,5.53,9.57-5.52v-11.07ZM48.96,18.49l6.04,3.49,6.04-3.49c-3.98-.75-8.11-.76-12.09,0ZM65.79,19.77l-9.04,5.22v11.07l9.57,5.52,9.57-5.53v-10.44c-2.95-2.52-6.37-4.51-10.1-5.84h0ZM64.57,44.61l-9.57-5.53-9.57,5.52v11.07l9.57,5.52,9.57-5.52v-11.07Z"/>
</svg>