<?xml version="1.0" encoding="UTF-8"?>
<svg id="Camada_1" xmlns="http://www.w3.org/2000/svg" version="1.1" viewBox="0 0 110 135">
  <!-- Generator: Adobe Illustrator 30.0.0, SVG Export Plug-In . SVG Version: 2.1.1 Build 123)  -->
  <defs>
    <style>
      .st0 {
        fill: #726e87;
      }

      .st1 {
        fill: #e52d12;
      }
    </style>
  </defs>
  <path class="st0" d="M90.14,95.42H24.55c-3.03,0-5.48-2.46-5.48-5.48v-31.91c0-.43.35-.78.78-.78s.78.35.78.78v31.91c0,2.16,1.76,3.92,3.92,3.92h65.59c2.16,0,3.92-1.76,3.92-3.92v-3.48c0-.43.35-.78.78-.78s.78.35.78.78v3.48c0,3.03-2.46,5.48-5.48,5.48Z"/>
  <path class="st0" d="M94.84,74.14c-.43,0-.78-.35-.78-.78v-36.78c0-2.16-1.76-3.92-3.92-3.92h-47.36c-.43,0-.78-.35-.78-.78s.35-.78.78-.78h47.36c3.03,0,5.48,2.46,5.48,5.48v36.78c0,.21-.08.41-.23.55-.14.15-.34.23-.55.23Z"/>
  <path class="st0" d="M94.84,81.84c-.43,0-.78-.35-.78-.78v-2.31c0-.43.35-.78.78-.78s.78.35.78.78v2.31c0,.21-.08.41-.23.55-.14.15-.34.23-.55.23Z"/>
  <path class="st0" d="M88.94,85.22H25.75c-1.11,0-2-.89-2-2v-23.16c0-.43.35-.78.78-.78s.78.35.78.78v23.16c0,.24.2.44.44.44h63.19c.24,0,.44-.2.44-.44v-45.44c0-.24-.2-.44-.44-.44h-44.12c-.43,0-.78-.35-.78-.78s.35-.78.78-.78h44.12c1.11,0,2,.89,2,2v45.44c0,1.11-.89,2-2,2Z"/>
  <path d="M30.59,90.32h-3.12c-.43,0-.78-.35-.78-.78s.35-.78.78-.78h3.12c.43,0,.78.35.78.78s-.35.78-.78.78Z"/>
  <path d="M36.84,90.32h-3.12c-.43,0-.78-.35-.78-.78s.35-.78.78-.78h3.12c.43,0,.78.35.78.78s-.35.78-.78.78Z"/>
  <path d="M43.09,90.32h-3.12c-.43,0-.78-.35-.78-.78s.35-.78.78-.78h3.12c.43,0,.78.35.78.78s-.35.78-.78.78Z"/>
  <path d="M49.34,90.32h-3.12c-.43,0-.78-.35-.78-.78s.35-.78.78-.78h3.12c.43,0,.78.35.78.78s-.35.78-.78.78Z"/>
  <path class="st1" d="M89.57,91.88h-4.69c-.43,0-.78-.35-.78-.78v-3.12c0-.43.35-.78.78-.78h4.69c.21,0,.41.08.55.23s.23.35.23.55v3.12c0,.21-.08.41-.23.55-.14.15-.34.23-.55.23ZM85.66,90.32h3.12v-1.56h-3.12v1.56Z"/>
  <path d="M57.34,32.66c-.33,0-.63-.21-.74-.53s0-.66.26-.87l18.08-14.06h0c.16-.14.38-.2.59-.18.21.02.4.13.53.3.13.17.19.38.16.59-.03.21-.14.4-.32.52l-18.08,14.06h0c-.14.11-.31.16-.48.16h0Z"/>
  <path d="M57.34,32.66c-.17,0-.34-.06-.48-.16l-18.08-14.06c-.17-.12-.29-.31-.32-.52-.03-.21.03-.42.16-.59.13-.17.32-.28.54-.3.21-.02.42.04.59.18l18.08,14.06c.26.21.37.55.26.87s-.41.53-.74.53h0Z"/>
  <path d="M62.07,80.31c-.81,0-1.62-.13-2.38-.39-.79-.26-1.5-.71-2.07-1.29-2.36-2.41-2.27-5,.28-7.71,2.73-2.55,5.05-7.27,6.94-14.05.19-.71.13-1.46-.16-2.13l-7.84-17.87c-.09-.19-.09-.4-.01-.6.07-.19.22-.35.41-.43.39-.18.86,0,1.03.4l7.85,17.87h0c.44,1,.52,2.13.23,3.18-1.99,7.16-4.39,11.98-7.34,14.73-1.93,2.06-2.02,3.72-.27,5.51.41.41.9.72,1.45.91,5.61,1.88,11.87-5.18,19.13-13.33,1.56-1.75,3.17-3.56,4.82-5.33.65-.88.53-2.54-1.32-4.1l-6.75-5.71h0c-.68-.57-1.18-1.33-1.46-2.18l-3.54-11c-.07-.2-.06-.42.04-.61.09-.19.26-.33.46-.4.2-.07.42-.04.61.05.18.1.32.27.38.48l3.54,11c.18.57.52,1.07.98,1.46l6.75,5.71c2.62,2.22,2.64,4.76,1.5,6.29-1.7,1.83-3.3,3.62-4.85,5.37-6.71,7.53-12.62,14.16-18.41,14.16h0Z"/>
  <path d="M67.65,57.1c-.7,0-1.4-.08-2.08-.22-.43-.09-.7-.5-.61-.92s.5-.7.92-.61c4.3.89,7.32-1.41,9.23-7.02.07-.2.21-.36.39-.45.19-.09.4-.11.6-.04.41.14.63.58.49.99-1.86,5.5-4.87,8.27-8.94,8.27h0Z"/>
  <path d="M58.94,79.48c-.35,0-.65-.23-.75-.56s.04-.69.32-.88c4.55-2.96,12.7-10.86,24.23-23.48.29-.3.77-.32,1.09-.04s.34.77.07,1.09c-11.61,12.72-19.86,20.71-24.53,23.74-.12.08-.27.12-.43.12h0Z"/>
  <path d="M64.89,66.62c-.88.02-1.74-.22-2.48-.7-.36-.24-.46-.72-.23-1.08.24-.36.72-.46,1.08-.23.77.45,1.69.57,2.55.36.21-.04.42,0,.59.12.18.12.29.3.33.51.04.21-.02.42-.14.59s-.31.29-.52.32c-.39.07-.79.11-1.19.11h0Z"/>
  <path d="M65.74,64.03c-.85.02-1.69-.21-2.42-.65-.18-.11-.32-.29-.37-.49-.05-.21-.02-.43.09-.61.11-.18.29-.3.5-.35.21-.05.43,0,.6.12.76.42,1.65.54,2.49.33.43-.08.83.21.91.63.08.43-.21.83-.63.91-.39.07-.79.11-1.18.11h0Z"/>
  <path d="M66.03,61.28c-.59,0-1.16-.1-1.71-.31-.39-.16-.58-.61-.43-1.01.16-.4.6-.59,1-.45.66.23,1.37.27,2.05.11.43-.07.83.21.91.63.07.43-.21.83-.63.91-.39.07-.79.11-1.18.11h0Z"/>
  <path d="M62.83,55.88s-.09,0-.14-.01c-.75-.14-1.48-.29-2.21-.44-.42-.09-.69-.5-.6-.93s.5-.69.93-.6c.71.15,1.43.29,2.17.43h0c.4.07.67.43.64.84-.04.4-.37.71-.78.71h0Z"/>
  <path d="M57.63,54.74c-.06,0-.12,0-.19-.02-4.67-1.04-9.13-2.85-13.21-5.35-.37-.23-.48-.71-.25-1.07.23-.37.71-.48,1.08-.25,3.94,2.41,8.25,4.15,12.76,5.16.38.09.64.46.59.85s-.38.69-.77.69h0Z"/>
  <path d="M58.94,61.28c-.06,0-.12,0-.18-.02-6.09-1.2-11.94-3.39-17.33-6.47-.36-.23-.46-.7-.24-1.07.22-.36.7-.48,1.06-.26,5.24,2.99,10.94,5.11,16.86,6.28.39.09.64.45.6.85-.05.39-.38.7-.78.7h0Z"/>
  <path d="M54.61,65.58c-.05,0-.11,0-.16-.02-1.46-.31-2.9-.66-4.26-1.04h0c-.2-.05-.38-.19-.48-.37-.11-.18-.13-.4-.08-.6.06-.2.19-.37.38-.47.18-.1.4-.13.6-.07,1.34.37,2.74.71,4.18,1.02h0c.39.08.66.45.61.84-.04.4-.38.7-.78.7h0Z"/>
  <path d="M46.71,63.42c-.09,0-.17-.01-.25-.04-3.39-1.14-6.66-2.61-9.76-4.41-.36-.22-.48-.7-.26-1.06.21-.37.69-.49,1.06-.28,3,1.74,6.17,3.18,9.47,4.28.36.12.58.49.52.87s-.39.66-.77.65h0Z"/>
  <path d="M54.61,70.52s-.09,0-.13-.01c-10.91-1.8-18.94-4.88-24.55-9.39-.34-.27-.39-.76-.12-1.1.27-.34.76-.39,1.1-.12,5.4,4.34,13.19,7.31,23.83,9.07.4.07.68.43.65.83-.03.41-.37.72-.78.72h0Z"/>
  <path class="st0" d="M35.83,102.97h-5.05c-1.29,0-2.34-1.05-2.34-2.34v-5.99c0-.43.35-.78.78-.78s.78.35.78.78v5.99c0,.43.35.78.78.78h5.05c.43,0,.78-.35.78-.78v-5.99c0-.43.35-.78.78-.78s.78.35.78.78v5.99c0,1.29-1.05,2.34-2.34,2.34h0Z"/>
  <path class="st0" d="M83.91,102.97h-5.05c-1.29,0-2.34-1.05-2.34-2.34v-5.99c0-.43.35-.78.78-.78s.78.35.78.78v5.99c0,.43.35.78.78.78h5.05c.43,0,.78-.35.78-.78v-5.99c0-.43.35-.78.78-.78s.78.35.78.78v5.99c0,1.29-1.05,2.34-2.34,2.34h0Z"/>
  <path d="M28.69,58.24c-7.9,0-14.31-6.41-14.31-14.31v-3.21c0-.43.35-.78.78-.78s.78.35.78.78v3.21c.07,7,5.75,12.63,12.75,12.63s12.68-5.64,12.75-12.63v-3.21c0-.43.35-.78.78-.78s.78.35.78.78v3.21c-.01,7.9-6.41,14.31-14.31,14.31h0Z"/>
  <path d="M28.69,55.04c-5.79,0-11.01-3.49-13.22-8.84s-.99-11.5,3.1-15.59c4.09-4.09,10.25-5.32,15.6-3.1,5.35,2.21,8.83,7.43,8.83,13.22,0,7.9-6.41,14.31-14.31,14.31h0ZM28.69,27.98c-5.16,0-9.8,3.11-11.78,7.87-1.97,4.77-.88,10.25,2.77,13.9,3.64,3.65,9.13,4.74,13.9,2.77,4.76-1.98,7.87-6.62,7.87-11.78,0-7.04-5.71-12.74-12.75-12.75h0Z"/>
  <path d="M31.8,46.29h-6.22c-.34,0-.64-.22-.74-.54l-1.92-5.91c-.11-.32.01-.67.29-.87l5.03-3.66c.27-.2.64-.2.92,0l5.03,3.66h0c.27.2.39.55.29.87l-1.92,5.91c-.11.32-.41.54-.74.54h0ZM26.15,44.73h5.08l1.57-4.83-4.11-2.99-4.11,2.99,1.57,4.83Z"/>
  <path d="M24.48,54.36c-.37,0-.68-.26-.76-.62l-1.02-4.79-4.85.48h0c-.43.04-.8-.27-.86-.7-.04-.43.27-.81.7-.86l5.55-.55h0c.39-.04.76.23.84.62l1.17,5.47c.04.2,0,.41-.11.59-.11.17-.29.3-.49.34-.05.01-.11.02-.17.02h0Z"/>
  <path d="M15.16,41.5c-.35,0-.66-.24-.75-.58-.09-.34.06-.7.36-.88l4.25-2.47-1.96-4.48c-.17-.39,0-.86.4-1.03.39-.18.86,0,1.03.4l2.25,5.12h0c.16.36.02.79-.32.98l-4.86,2.82c-.12.07-.25.11-.39.11h0Z"/>
  <path d="M28.71,32.37c-.19,0-.38-.07-.52-.2l-4.18-3.75h0c-.32-.29-.34-.78-.05-1.1.29-.32.77-.35,1.1-.07l3.66,3.29,3.66-3.26c.32-.29.82-.26,1.1.06.29.32.26.82-.06,1.11l-4.18,3.73c-.14.13-.33.2-.52.2h0Z"/>
  <path d="M42.22,41.52c-.14,0-.27-.04-.39-.11l-4.85-2.82c-.34-.2-.48-.63-.32-.99l2.27-5.12c.08-.19.24-.34.43-.42.2-.08.41-.07.6.01.19.09.34.24.42.44.07.2.06.41-.02.6l-1.99,4.48,4.12,2.4c.31.11.52.39.52.72v.02c0,.21-.08.41-.23.55-.14.15-.34.23-.55.23h0Z"/>
  <path d="M32.85,54.38c-.05,0-.11,0-.17-.02-.2-.05-.38-.17-.49-.34-.11-.17-.15-.38-.11-.59l1.2-5.47h0c.08-.39.45-.66.84-.61l5.55.57c.43.04.74.43.7.86-.05.43-.43.74-.86.7l-4.85-.5-1.05,4.79c-.08.36-.39.61-.76.61h0Z"/>
  <path d="M33.72,40.38c-.37,0-.69-.25-.77-.61s.11-.72.44-.88l3.65-1.68c.39-.17.84,0,1.02.39.18.39.02.84-.37,1.03l-3.65,1.68c-.1.05-.21.07-.32.07h0Z"/>
  <path d="M28.71,36.73c-.43,0-.78-.35-.78-.78v-4.36c0-.43.35-.78.78-.78s.78.35.78.78v4.36c0,.21-.08.41-.23.55-.14.15-.34.23-.55.23Z"/>
  <path d="M23.66,40.38c-.11,0-.23-.02-.33-.07l-3.65-1.7c-.2-.09-.35-.24-.42-.44-.07-.2-.07-.41.02-.61.09-.19.25-.34.45-.41.2-.07.42-.05.61.04l3.65,1.7c.33.16.51.52.43.88-.08.36-.39.61-.76.61Z"/>
  <path d="M23.31,48.89c-.3,0-.58-.18-.71-.46-.12-.28-.08-.61.12-.84l2.27-2.59h0c.13-.16.33-.27.54-.28.21-.02.42.05.58.19.16.14.26.34.27.55.01.21-.06.42-.21.57l-2.27,2.59h0c-.15.17-.36.27-.59.27h0Z"/>
  <path d="M34.04,48.91c-.23,0-.45-.1-.59-.27l-2.25-2.62c-.14-.15-.22-.36-.21-.57.01-.21.11-.41.27-.55.16-.14.38-.21.59-.19s.4.12.54.29l2.25,2.62c.2.23.25.55.12.83-.13.28-.41.46-.71.46Z"/>
</svg>