<?xml version="1.0" encoding="UTF-8"?>
<svg id="Camada_1" xmlns="http://www.w3.org/2000/svg" version="1.1" viewBox="0 0 110 135">
  <!-- Generator: Adobe Illustrator 30.0.0, SVG Export Plug-In . SVG Version: 2.1.1 Build 123)  -->
  <defs>
    <style>
      .st0 {
        fill: #d4ad05;
      }
    </style>
  </defs>
  <path d="M22.72,33.12c.49,0,.95-.23,1.24-.62.29-.39.39-.89.26-1.36s-.47-.85-.92-1.03c-.45-.18-.96-.15-1.38.1v-.02l-.12.09c-.34.24-.57.61-.62,1.02-.07.41.04.82.28,1.16.29.41.77.66,1.27.66h0Z"/>
  <path class="st0" d="M77.75,70.94h7.03c.86,0,1.56-.7,1.56-1.56s-.7-1.56-1.56-1.56h-3.12v-.31c0-.86-.7-1.56-1.56-1.56s-1.56.7-1.56,1.56v.31h-.78c-2.16,0-3.91,1.75-3.91,3.91s1.75,3.91,3.91,3.91h4.69c.43,0,.78.35.78.78s-.35.78-.78.78h-7.03c-.86,0-1.56.7-1.56,1.56s.7,1.56,1.56,1.56h3.12v.31c0,.86.7,1.56,1.56,1.56s1.56-.7,1.56-1.56v-.31h.78c2.16,0,3.91-1.75,3.91-3.91s-1.75-3.91-3.91-3.91h-4.69c-.43,0-.78-.35-.78-.78s.35-.78.78-.78Z"/>
  <path class="st0" d="M98.79,67.69c.21,0,.42-.04.61-.12.39-.15.7-.46.84-.84.16-.39.16-.82-.02-1.2l-.14-.34v.08c-.45-.67-1.33-.89-2.04-.5-.71.39-1.01,1.25-.69,1.99.24.58.81.96,1.44.95h0Z"/>
  <path d="M101.88,72.02c-.09-.86-.85-1.48-1.7-1.41-.41.04-.8.25-1.06.56-.27.32-.39.73-.34,1.14,0,.06,0,.12,0,.19h-3.14c-.3-3.05-1.5-5.95-3.45-8.31l2.25-2.25h0c.58.54,1.47.58,2.1.09.31-.27.51-.65.54-1.07.03-.41-.1-.82-.37-1.14-2.79-3.25-6.45-5.61-10.56-6.79-4.11-1.18-8.47-1.14-12.56.13-.91-8-4.73-15.39-10.73-20.76-6-5.37-13.77-8.34-21.82-8.35-4.69-.01-9.32.99-13.58,2.94-.38.17-.67.48-.81.88-.16.38-.14.81.03,1.19.36.73,1.2,1.09,1.97.83l.11-.05s.07-.04.11-.05c.19.23.41.45.66.62l9.7,7.11c.08.05.17.08.25.12v3.58l-12.88,9.3-3.36-1.08c0-.09-.03-.19-.05-.28l-3.75-11.45c-.11-.27-.23-.53-.38-.78.05-.05.1-.11.14-.17.58-.64.54-1.63-.09-2.22-.64-.56-1.61-.52-2.2.09-7.45,8.05-10.39,19.28-7.82,29.94,2.57,10.66,10.3,19.33,20.59,23.11,10.3,3.77,21.8,2.14,30.64-4.33,2.84,6.05,8.28,10.47,14.78,12,6.5,1.53,13.35,0,18.59-4.14,5.23-4.15,8.29-10.47,8.28-17.15,0-.7-.03-1.38-.09-2.05h0ZM81.66,55.4c3.88.32,7.55,1.85,10.52,4.36l-2.21,2.21c-2.37-1.95-5.26-3.15-8.31-3.45v-3.12ZM58.38,71.48h-4.48c-.1,0-.2.01-.3.04l-2.27-3.11,4.94-14.84,3.52-1.14c.06.07.13.14.2.2l6.25,4.51c-4.38,3.58-7.2,8.72-7.87,14.34h0ZM65.8,61.99l2.2,2.2c-1.95,2.37-3.14,5.26-3.45,8.31h-3.12c.33-3.88,1.86-7.55,4.38-10.51h0ZM78.53,55.4v3.12h0c-3.05.3-5.95,1.51-8.32,3.45l-2.2-2.2c2.96-2.52,6.64-4.05,10.52-4.38h0ZM65.25,39.81h0c3.04,4.3,4.88,9.34,5.32,14.59-.54.27-1.07.55-1.59.86l-7.13-5.11,3.4-10.33ZM53.17,29.84h0c3.73,1.68,7.07,4.12,9.81,7.16-.14.23-.26.49-.34.75l-3.77,11.42c-.02.09-.04.19-.05.28l-3.34,1.08-12.89-9.3v-3.58c.08-.05.17-.08.25-.12l9.7-7.11c.22-.17.43-.37.62-.58h0ZM32.23,28.53h0c5.73-1.79,11.86-1.79,17.59,0l-8.77,6.47-8.83-6.47ZM41.03,43.95l12.22,8.83-4.75,14.25h-14.94l-4.75-14.25,12.22-8.83ZM16.81,39.77l3.42,10.33-8.88,6.41h0c.08-6,1.98-11.84,5.45-16.73h0ZM15.32,71.61h0c-2.05-3.54-3.34-7.46-3.8-11.52.28-.11.54-.26.78-.44l9.77-7.03c.08-.06.12-.14.2-.2l3.5,1.14,4.95,14.84-2.27,3.11c-.09-.02-.18-.04-.27-.05l-12.03.05c-.29,0-.57.04-.84.09h0ZM17.32,74.63l10.83-.06,3.33,10.38h0c-5.64-1.95-10.57-5.54-14.16-10.31h0ZM47.09,85.92h0c-4,.86-8.13.86-12.12,0-.03-.3-.09-.59-.17-.88l-3.67-11.44c-.03-.09-.09-.17-.12-.27l2.31-3.19h15.44l2.31,3.19c-.03.09-.09.16-.12.25l-3.69,11.47c-.07.28-.13.57-.16.86h0ZM50.57,84.94l3.3-10.34,4.37.02h0c.04,1.92.34,3.82.88,5.66-2.58,2.01-5.46,3.59-8.55,4.66h0ZM65.8,86.14c-2.52-2.96-4.04-6.64-4.38-10.51h3.12c.3,3.05,1.51,5.94,3.45,8.31l-2.2,2.2ZM78.53,92.73h0c-3.88-.33-7.55-1.86-10.52-4.38l2.2-2.2c2.37,1.95,5.27,3.15,8.32,3.45v3.12ZM67.59,74.06c0-5.05,3.04-9.61,7.71-11.55,4.67-1.94,10.05-.87,13.62,2.71,3.57,3.57,4.64,8.95,2.71,13.62-1.93,4.67-6.49,7.71-11.55,7.71-6.9,0-12.49-5.6-12.5-12.5h0ZM81.65,92.73v-3.12c3.05-.3,5.94-1.51,8.31-3.45l2.2,2.2c-2.96,2.52-6.64,4.05-10.51,4.38h0ZM94.38,86.14l-2.2-2.2c1.95-2.37,3.14-5.26,3.45-8.31h3.12c-.33,3.88-1.86,7.55-4.38,10.51h0Z"/>
</svg>